<svg width="500" height="500" viewBox="0 0 500 500" fill="none" xmlns="http://www.w3.org/2000/svg">
<path d="M387 130.86C387 130.86 344.31 86.75 276.72 88.86C209.13 90.97 151.49 133.69 103.82 167.13C56.1501 200.57 43.3501 252.53 71.1001 293.08C98.8501 333.63 142.96 316.56 199.16 342.88C255.36 369.2 266 384.15 328.65 377.75C391.3 371.35 438.94 305.89 431.82 236.16C424.7 166.43 387 130.86 387 130.86Z" fill="#127D85"/>
<path opacity="0.7" d="M387 130.86C387 130.86 344.31 86.75 276.72 88.86C209.13 90.97 151.49 133.69 103.82 167.13C56.1501 200.57 43.3501 252.53 71.1001 293.08C98.8501 333.63 142.96 316.56 199.16 342.88C255.36 369.2 266 384.15 328.65 377.75C391.3 371.35 438.94 305.89 431.82 236.16C424.7 166.43 387 130.86 387 130.86Z" fill="white"/>
<path d="M403.36 399.3C403.36 402.24 337.36 404.61 256.03 404.61C174.7 404.61 108.69 402.24 108.69 399.3C108.69 396.36 174.69 394 256.03 394C337.37 394 403.36 396.37 403.36 399.3Z" fill="#127D85"/>
<path opacity="0.6" d="M403.36 399.3C403.36 402.24 337.36 404.61 256.03 404.61C174.7 404.61 108.69 402.24 108.69 399.3C108.69 396.36 174.69 394 256.03 394C337.37 394 403.36 396.37 403.36 399.3Z" fill="white"/>
<path d="M116.67 233.78C116.73 233.78 115.98 230.05 115.9 229.78C115.04 227.12 111.81 222.48 108.67 222.48C108.149 222.496 107.637 222.622 107.168 222.848C106.699 223.075 106.282 223.398 105.946 223.796C105.609 224.193 105.36 224.658 105.214 225.158C105.069 225.658 105.03 226.184 105.1 226.7C105.33 228.9 107.31 230.78 109.1 231.86C111.2 233.17 116.67 233.78 116.67 233.78Z" fill="#127D85"/>
<path d="M122.74 208.66C119.79 209.72 118.33 215.18 118.42 217.98C118.42 218.22 118.98 221.98 119.04 221.98H119.1C118.86 222.84 118.61 223.76 118.36 224.78C117.92 226.66 117.44 228.78 117.07 231.14C116.641 233.668 116.36 236.219 116.23 238.78C116.075 241.65 116.172 244.527 116.52 247.38C116.524 247.413 116.524 247.447 116.52 247.48C116.14 246.65 114.98 244.36 114.87 244.19C113.33 241.85 108.99 238.19 105.96 239.06C105.463 239.213 105.004 239.469 104.613 239.811C104.222 240.152 103.906 240.572 103.687 241.044C103.469 241.515 103.352 242.027 103.343 242.547C103.335 243.066 103.436 243.582 103.64 244.06C104.44 246.13 106.84 247.41 108.85 247.99C111.12 248.63 116.18 247.87 116.58 247.81C117.013 250.701 117.635 253.56 118.44 256.37C118.91 258.01 119.44 259.65 119.96 261.28C119.61 260.57 119.28 259.94 119.23 259.86C117.69 257.52 113.35 253.86 110.32 254.73C109.823 254.883 109.364 255.139 108.973 255.481C108.582 255.822 108.266 256.242 108.047 256.714C107.829 257.185 107.712 257.697 107.703 258.217C107.695 258.736 107.796 259.252 108 259.73C108.8 261.79 111.2 263.08 113.21 263.65C115.22 264.22 119.58 263.65 120.72 263.51C120.93 264.13 121.14 264.76 121.36 265.38C122.36 268.38 123.44 271.38 124.36 274.32C124.69 275.32 124.97 276.4 125.26 277.44C124.95 276.81 124.67 276.28 124.62 276.21C123.09 273.86 118.74 270.21 115.72 271.08C115.222 271.232 114.762 271.487 114.37 271.828C113.977 272.17 113.661 272.59 113.441 273.061C113.222 273.533 113.103 274.045 113.095 274.565C113.086 275.085 113.186 275.601 113.39 276.08C114.19 278.14 116.6 279.43 118.61 280C120.62 280.57 124.55 280.07 125.91 279.88C126.18 280.95 126.45 282.03 126.66 283.08C126.78 283.8 126.95 284.48 127.04 285.22L127.34 287.36C127.48 288.73 127.64 290.14 127.74 291.48C127.82 292.42 127.88 293.31 127.94 294.2C127.63 293.2 126.94 291.13 126.94 290.97C125.833 288.77 124.18 286.89 122.14 285.51C122.026 285.26 121.893 285.019 121.74 284.79C121.455 284.354 121.081 283.983 120.644 283.7C120.206 283.418 119.714 283.231 119.199 283.151C118.684 283.07 118.158 283.099 117.656 283.235C117.153 283.371 116.684 283.611 116.28 283.94C113.91 285.99 114.5 291.61 115.59 294.19C115.65 294.34 116.59 295.92 117.11 296.9L115.84 295.32C114.96 294.25 114.06 293.21 113.1 292.09C112.607 291.57 112.117 291.04 111.63 290.5C111.15 289.96 110.58 289.45 110.05 288.91C108.79 287.7 107.46 286.53 106.05 285.39C106.99 284.62 110.26 281.86 111.2 279.98C112.14 278.1 112.81 275.47 111.83 273.48C111.615 273.007 111.302 272.584 110.913 272.239C110.523 271.894 110.066 271.635 109.57 271.479C109.074 271.322 108.55 271.272 108.033 271.33C107.517 271.389 107.018 271.556 106.57 271.82C103.91 273.48 103.64 279.13 104.33 281.82C104.33 281.99 105.09 283.89 105.5 284.92C104.67 284.23 103.85 283.55 102.99 282.92C100.51 281.01 97.9899 279.15 95.3899 277.28L93.0599 275.55C93.3899 275.28 97.3499 272.08 98.4099 269.97C99.3499 268.1 100.02 265.46 99.0399 263.48C98.8256 263.004 98.5134 262.579 98.1237 262.232C97.7339 261.886 97.2754 261.625 96.7781 261.467C96.2808 261.31 95.7558 261.259 95.2375 261.318C94.7191 261.377 94.2191 261.545 93.7699 261.81C91.1199 263.48 90.8499 269.12 91.5399 271.81C91.5899 272.01 92.6199 274.73 92.9199 275.41C91.2099 274.14 89.5199 272.86 87.9199 271.53C85.7315 269.738 83.6606 267.808 81.7199 265.75C81.8699 265.63 86.0199 262.3 87.0999 260.15C88.0399 258.28 88.7099 255.64 87.7299 253.65C87.5134 253.179 87.2005 252.758 86.8115 252.415C86.4224 252.073 85.9658 251.815 85.4712 251.66C84.9765 251.504 84.4547 251.454 83.9395 251.513C83.4243 251.571 82.9271 251.737 82.4799 252C79.8199 253.67 79.5599 259.32 80.2399 262C80.2899 262.18 81.0699 264.26 81.4699 265.23L81.3199 265.33C79.4203 263.206 77.7135 260.917 76.2199 258.49C75.3899 257.17 74.6599 255.85 73.9799 254.56C74.8199 254.02 78.6099 251.56 79.7999 249.68C80.9899 247.8 81.8999 245.37 81.1399 243.29C80.9772 242.801 80.7146 242.352 80.3688 241.97C80.0229 241.589 79.6014 241.284 79.1311 241.074C78.6608 240.864 78.1519 240.754 77.637 240.752C77.122 240.75 76.6122 240.855 76.1399 241.06C73.3199 242.42 72.4299 248.06 72.8199 250.78C72.8199 250.93 73.2199 252.44 73.5199 253.53C73.2199 252.95 72.8999 252.34 72.6299 251.77C71.6299 249.64 70.7799 247.62 70.0799 245.83C69.6899 244.83 69.3499 243.83 69.0799 242.99C69.6199 242.04 71.7699 238.15 71.9699 235.99C72.1699 233.83 71.8499 231.2 70.2199 229.7C69.8479 229.335 69.4032 229.051 68.9147 228.869C68.4262 228.686 67.9047 228.609 67.3842 228.641C66.8637 228.673 66.3557 228.814 65.8933 229.055C65.4309 229.296 65.0243 229.632 64.6999 230.04C62.8299 232.55 64.6199 237.92 66.2399 240.2C66.3799 240.4 68.9199 243.2 68.9499 243.2V243.14C69.2299 243.99 69.5299 244.89 69.8899 245.88C70.5599 247.69 71.3299 249.73 72.3199 251.88C73.3587 254.227 74.5341 256.511 75.8399 258.72C77.2961 261.197 78.9693 263.539 80.8399 265.72L80.9099 265.79C80.1299 265.31 77.9099 264.04 77.7199 263.96C75.1499 262.85 69.5199 262.23 67.4599 264.59C67.1288 264.992 66.8862 265.46 66.7478 265.962C66.6094 266.464 66.5783 266.99 66.6566 267.505C66.7349 268.02 66.9208 268.513 67.2022 268.952C67.4837 269.39 67.8543 269.764 68.2899 270.05C70.0899 271.33 72.8099 271.05 74.7999 270.45C77.0499 269.74 80.7999 266.31 81.1499 266.04C83.1059 268.213 85.2039 270.254 87.4299 272.15C88.7199 273.26 90.0499 274.34 91.4299 275.41C90.7399 275.02 90.1199 274.67 90.0299 274.63C87.4599 273.52 81.8399 272.9 79.7799 275.26C79.4469 275.661 79.2023 276.128 79.0622 276.63C78.9221 277.132 78.8898 277.658 78.9672 278.174C79.0446 278.689 79.2301 279.183 79.5114 279.621C79.7928 280.06 80.1638 280.435 80.5999 280.72C82.4099 282 85.1199 281.72 87.1199 281.12C89.1199 280.52 92.4299 277.62 93.2999 276.85L94.8599 278.07C97.3799 280 99.8599 281.91 102.31 283.86C103.16 284.55 103.97 285.25 104.79 285.96C104.18 285.61 103.66 285.32 103.57 285.28C101 284.18 95.3799 283.55 93.3199 285.92C92.9869 286.321 92.7423 286.788 92.6022 287.29C92.4621 287.792 92.4298 288.318 92.5072 288.834C92.5846 289.349 92.7701 289.842 93.0515 290.281C93.3328 290.72 93.7038 291.095 94.1399 291.38C95.9499 292.66 98.6599 292.38 100.66 291.77C102.66 291.16 105.66 288.55 106.66 287.65C107.47 288.39 108.29 289.14 109.05 289.9C109.55 290.43 110.05 290.9 110.55 291.47L111.98 293.1C112.86 294.16 113.76 295.25 114.59 296.31C115.17 297.05 115.71 297.76 116.26 298.47C115.42 297.78 113.75 296.47 113.59 296.36C111.22 294.87 105.76 293.41 103.36 295.43C102.973 295.778 102.663 296.204 102.451 296.679C102.239 297.155 102.129 297.669 102.129 298.19C102.129 298.711 102.239 299.225 102.451 299.701C102.663 300.177 102.973 300.602 103.36 300.95C104.95 302.49 107.67 302.65 109.74 302.33C112.01 301.98 116.13 299.33 116.64 298.96C117.54 300.14 118.4 301.3 119.2 302.4C121.97 306.23 124.13 309.53 125.61 311.85L125.76 312.09L127.68 311.16L127.38 310.7C125.83 308.39 123.58 305.11 120.69 301.3C119.79 300.09 118.79 298.83 117.76 297.53C118.83 296.362 119.831 295.133 120.76 293.85C122.96 294.71 127.55 294.74 128.14 294.74C128.24 296.23 128.32 297.67 128.37 299.03C128.57 303.76 128.55 307.7 128.51 310.45C128.51 310.56 128.51 310.66 128.51 310.77L130.62 309.77C130.62 307.03 130.51 303.33 130.24 298.95C130.14 297.45 130.01 295.84 129.87 294.19C130.45 294.05 135.22 292.82 137.02 291.38C138.66 290.08 140.38 287.96 140.32 285.75C140.324 285.229 140.218 284.713 140.01 284.236C139.801 283.759 139.495 283.331 139.11 282.98C138.725 282.629 138.27 282.363 137.776 282.199C137.281 282.036 136.758 281.978 136.24 282.03C133.12 282.43 130.52 287.44 130.01 290.2C130.01 290.36 129.84 292.2 129.78 293.29C129.72 292.62 129.66 291.97 129.59 291.29C129.45 289.92 129.27 288.56 129.09 287.09C128.97 286.39 128.85 285.67 128.74 284.95C128.63 284.23 128.44 283.49 128.29 282.76C127.91 281.05 127.45 279.34 126.94 277.63C128.14 277.51 132.4 277.01 134.22 275.96C136.04 274.91 138.05 273.09 138.33 270.89C138.412 270.376 138.385 269.851 138.251 269.348C138.117 268.845 137.878 268.376 137.551 267.972C137.224 267.567 136.815 267.236 136.351 267C135.888 266.763 135.38 266.627 134.86 266.6C131.72 266.52 128.38 271.08 127.46 273.73C127.4 273.89 126.95 275.86 126.73 276.95C126.41 275.95 126.11 274.9 125.73 273.87C124.73 270.87 123.6 267.94 122.5 264.97L121.5 262.24C121.93 262.24 127 261.72 129.04 260.54C130.85 259.54 132.87 257.67 133.15 255.47C133.234 254.956 133.208 254.43 133.074 253.927C132.941 253.423 132.702 252.954 132.375 252.549C132.047 252.144 131.638 251.812 131.173 251.577C130.709 251.341 130.2 251.206 129.68 251.18C126.54 251.1 123.2 255.67 122.28 258.31C122.21 258.51 121.57 261.31 121.44 262.08C120.72 260.08 120.02 258.08 119.44 256.08C118.605 253.377 117.937 250.625 117.44 247.84C117.64 247.84 122.94 247.34 125.03 246.14C126.84 245.09 128.86 243.26 129.14 241.06C129.222 240.545 129.195 240.019 129.06 239.516C128.925 239.012 128.686 238.543 128.358 238.138C128.029 237.734 127.619 237.402 127.154 237.167C126.69 236.931 126.18 236.796 125.66 236.77C122.53 236.69 119.19 241.26 118.27 243.9C118.21 244.07 117.72 246.24 117.51 247.27H117.33C116.917 244.453 116.756 241.605 116.85 238.76C116.85 237.2 117 235.7 117.15 234.25C118.15 234.25 122.7 234.25 124.7 233.39C126.7 232.53 128.82 230.95 129.34 228.8C129.479 228.296 129.509 227.769 129.43 227.253C129.351 226.736 129.164 226.243 128.881 225.804C128.597 225.365 128.225 224.99 127.787 224.705C127.349 224.421 126.856 224.231 126.34 224.15C123.23 223.73 119.41 227.9 118.21 230.42C118.14 230.56 117.63 232.03 117.27 233.11C117.34 232.45 117.41 231.78 117.5 231.11C117.82 228.76 118.25 226.63 118.65 224.74C118.89 223.67 119.12 222.74 119.35 221.81C120.35 221.31 124.27 219.26 125.62 217.59C126.97 215.92 128.15 213.53 127.62 211.38C127.51 210.862 127.29 210.374 126.976 209.949C126.661 209.523 126.26 209.17 125.798 208.912C125.335 208.654 124.823 208.499 124.296 208.455C123.769 208.412 123.238 208.482 122.74 208.66Z" fill="#127D85"/>
<path d="M66.0599 257C68.5099 256.9 73.4099 254.38 73.4199 254.38C73.4299 254.38 70.7799 251.66 70.5899 251.5C68.3999 249.76 63.1399 247.67 60.5299 249.41C60.1046 249.71 59.7471 250.096 59.4807 250.543C59.2142 250.99 59.0449 251.488 58.9836 252.005C58.9223 252.522 58.9704 253.046 59.1248 253.543C59.2793 254.04 59.5365 254.499 59.8799 254.89C61.2899 256.6 63.9999 257.08 66.0599 257Z" fill="#127D85"/>
<g opacity="0.5">
<path d="M116.67 233.78C116.73 233.78 115.98 230.05 115.9 229.78C115.04 227.12 111.81 222.48 108.67 222.48C108.149 222.496 107.637 222.622 107.168 222.848C106.699 223.075 106.282 223.398 105.946 223.796C105.609 224.193 105.36 224.658 105.214 225.158C105.069 225.658 105.03 226.184 105.1 226.7C105.33 228.9 107.31 230.78 109.1 231.86C111.2 233.17 116.67 233.78 116.67 233.78Z" fill="white"/>
<path d="M122.74 208.66C119.79 209.72 118.33 215.18 118.42 217.98C118.42 218.22 118.98 221.98 119.04 221.98H119.1C118.86 222.84 118.61 223.76 118.36 224.78C117.92 226.66 117.44 228.78 117.07 231.14C116.641 233.668 116.36 236.219 116.23 238.78C116.075 241.65 116.172 244.527 116.52 247.38C116.524 247.413 116.524 247.447 116.52 247.48C116.14 246.65 114.98 244.36 114.87 244.19C113.33 241.85 108.99 238.19 105.96 239.06C105.463 239.213 105.004 239.469 104.613 239.811C104.222 240.152 103.906 240.572 103.687 241.044C103.469 241.515 103.352 242.027 103.343 242.547C103.335 243.066 103.436 243.582 103.64 244.06C104.44 246.13 106.84 247.41 108.85 247.99C111.12 248.63 116.18 247.87 116.58 247.81C117.013 250.701 117.635 253.56 118.44 256.37C118.91 258.01 119.44 259.65 119.96 261.28C119.61 260.57 119.28 259.94 119.23 259.86C117.69 257.52 113.35 253.86 110.32 254.73C109.823 254.883 109.364 255.139 108.973 255.481C108.582 255.822 108.266 256.242 108.047 256.714C107.829 257.185 107.712 257.697 107.703 258.217C107.695 258.736 107.796 259.252 108 259.73C108.8 261.79 111.2 263.08 113.21 263.65C115.22 264.22 119.58 263.65 120.72 263.51C120.93 264.13 121.14 264.76 121.36 265.38C122.36 268.38 123.44 271.38 124.36 274.32C124.69 275.32 124.97 276.4 125.26 277.44C124.95 276.81 124.67 276.28 124.62 276.21C123.09 273.86 118.74 270.21 115.72 271.08C115.222 271.232 114.762 271.487 114.37 271.828C113.977 272.17 113.661 272.59 113.441 273.061C113.222 273.533 113.103 274.045 113.095 274.565C113.086 275.085 113.186 275.601 113.39 276.08C114.19 278.14 116.6 279.43 118.61 280C120.62 280.57 124.55 280.07 125.91 279.88C126.18 280.95 126.45 282.03 126.66 283.08C126.78 283.8 126.95 284.48 127.04 285.22L127.34 287.36C127.48 288.73 127.64 290.14 127.74 291.48C127.82 292.42 127.88 293.31 127.94 294.2C127.63 293.2 126.94 291.13 126.94 290.97C125.833 288.77 124.18 286.89 122.14 285.51C122.026 285.26 121.893 285.019 121.74 284.79C121.455 284.354 121.081 283.983 120.644 283.7C120.206 283.418 119.714 283.231 119.199 283.151C118.684 283.07 118.158 283.099 117.656 283.235C117.153 283.371 116.684 283.611 116.28 283.94C113.91 285.99 114.5 291.61 115.59 294.19C115.65 294.34 116.59 295.92 117.11 296.9L115.84 295.32C114.96 294.25 114.06 293.21 113.1 292.09C112.607 291.57 112.117 291.04 111.63 290.5C111.15 289.96 110.58 289.45 110.05 288.91C108.79 287.7 107.46 286.53 106.05 285.39C106.99 284.62 110.26 281.86 111.2 279.98C112.14 278.1 112.81 275.47 111.83 273.48C111.615 273.007 111.302 272.584 110.913 272.239C110.523 271.894 110.066 271.635 109.57 271.479C109.074 271.322 108.55 271.272 108.033 271.33C107.517 271.389 107.018 271.556 106.57 271.82C103.91 273.48 103.64 279.13 104.33 281.82C104.33 281.99 105.09 283.89 105.5 284.92C104.67 284.23 103.85 283.55 102.99 282.92C100.51 281.01 97.9899 279.15 95.3899 277.28L93.0599 275.55C93.3899 275.28 97.3499 272.08 98.4099 269.97C99.3499 268.1 100.02 265.46 99.0399 263.48C98.8256 263.004 98.5134 262.579 98.1237 262.232C97.7339 261.886 97.2754 261.625 96.7781 261.467C96.2808 261.31 95.7558 261.259 95.2375 261.318C94.7191 261.377 94.2191 261.545 93.7699 261.81C91.1199 263.48 90.8499 269.12 91.5399 271.81C91.5899 272.01 92.6199 274.73 92.9199 275.41C91.2099 274.14 89.5199 272.86 87.9199 271.53C85.7315 269.738 83.6606 267.808 81.7199 265.75C81.8699 265.63 86.0199 262.3 87.0999 260.15C88.0399 258.28 88.7099 255.64 87.7299 253.65C87.5134 253.179 87.2005 252.758 86.8115 252.415C86.4224 252.073 85.9658 251.815 85.4712 251.66C84.9765 251.504 84.4547 251.454 83.9395 251.513C83.4243 251.571 82.9271 251.737 82.4799 252C79.8199 253.67 79.5599 259.32 80.2399 262C80.2899 262.18 81.0699 264.26 81.4699 265.23L81.3199 265.33C79.4203 263.206 77.7135 260.917 76.2199 258.49C75.3899 257.17 74.6599 255.85 73.9799 254.56C74.8199 254.02 78.6099 251.56 79.7999 249.68C80.9899 247.8 81.8999 245.37 81.1399 243.29C80.9772 242.801 80.7146 242.352 80.3688 241.97C80.0229 241.589 79.6014 241.284 79.1311 241.074C78.6608 240.864 78.1519 240.754 77.637 240.752C77.122 240.75 76.6122 240.855 76.1399 241.06C73.3199 242.42 72.4299 248.06 72.8199 250.78C72.8199 250.93 73.2199 252.44 73.5199 253.53C73.2199 252.95 72.8999 252.34 72.6299 251.77C71.6299 249.64 70.7799 247.62 70.0799 245.83C69.6899 244.83 69.3499 243.83 69.0799 242.99C69.6199 242.04 71.7699 238.15 71.9699 235.99C72.1699 233.83 71.8499 231.2 70.2199 229.7C69.8479 229.335 69.4032 229.051 68.9147 228.869C68.4262 228.686 67.9047 228.609 67.3842 228.641C66.8637 228.673 66.3557 228.814 65.8933 229.055C65.4309 229.296 65.0243 229.632 64.6999 230.04C62.8299 232.55 64.6199 237.92 66.2399 240.2C66.3799 240.4 68.9199 243.2 68.9499 243.2V243.14C69.2299 243.99 69.5299 244.89 69.8899 245.88C70.5599 247.69 71.3299 249.73 72.3199 251.88C73.3587 254.227 74.5341 256.511 75.8399 258.72C77.2961 261.197 78.9693 263.539 80.8399 265.72L80.9099 265.79C80.1299 265.31 77.9099 264.04 77.7199 263.96C75.1499 262.85 69.5199 262.23 67.4599 264.59C67.1288 264.992 66.8862 265.46 66.7478 265.962C66.6094 266.464 66.5783 266.99 66.6566 267.505C66.7349 268.02 66.9208 268.513 67.2022 268.952C67.4837 269.39 67.8543 269.764 68.2899 270.05C70.0899 271.33 72.8099 271.05 74.7999 270.45C77.0499 269.74 80.7999 266.31 81.1499 266.04C83.1059 268.213 85.2039 270.254 87.4299 272.15C88.7199 273.26 90.0499 274.34 91.4299 275.41C90.7399 275.02 90.1199 274.67 90.0299 274.63C87.4599 273.52 81.8399 272.9 79.7799 275.26C79.4469 275.661 79.2023 276.128 79.0622 276.63C78.9221 277.132 78.8898 277.658 78.9672 278.174C79.0446 278.689 79.2301 279.183 79.5114 279.621C79.7928 280.06 80.1638 280.435 80.5999 280.72C82.4099 282 85.1199 281.72 87.1199 281.12C89.1199 280.52 92.4299 277.62 93.2999 276.85L94.8599 278.07C97.3799 280 99.8599 281.91 102.31 283.86C103.16 284.55 103.97 285.25 104.79 285.96C104.18 285.61 103.66 285.32 103.57 285.28C101 284.18 95.3799 283.55 93.3199 285.92C92.9869 286.321 92.7423 286.788 92.6022 287.29C92.4621 287.792 92.4298 288.318 92.5072 288.834C92.5846 289.349 92.7701 289.842 93.0515 290.281C93.3328 290.72 93.7038 291.095 94.1399 291.38C95.9499 292.66 98.6599 292.38 100.66 291.77C102.66 291.16 105.66 288.55 106.66 287.65C107.47 288.39 108.29 289.14 109.05 289.9C109.55 290.43 110.05 290.9 110.55 291.47L111.98 293.1C112.86 294.16 113.76 295.25 114.59 296.31C115.17 297.05 115.71 297.76 116.26 298.47C115.42 297.78 113.75 296.47 113.59 296.36C111.22 294.87 105.76 293.41 103.36 295.43C102.973 295.778 102.663 296.204 102.451 296.679C102.239 297.155 102.129 297.669 102.129 298.19C102.129 298.711 102.239 299.225 102.451 299.701C102.663 300.177 102.973 300.602 103.36 300.95C104.95 302.49 107.67 302.65 109.74 302.33C112.01 301.98 116.13 299.33 116.64 298.96C117.54 300.14 118.4 301.3 119.2 302.4C121.97 306.23 124.13 309.53 125.61 311.85L125.76 312.09L127.68 311.16L127.38 310.7C125.83 308.39 123.58 305.11 120.69 301.3C119.79 300.09 118.79 298.83 117.76 297.53C118.83 296.362 119.831 295.133 120.76 293.85C122.96 294.71 127.55 294.74 128.14 294.74C128.24 296.23 128.32 297.67 128.37 299.03C128.57 303.76 128.55 307.7 128.51 310.45C128.51 310.56 128.51 310.66 128.51 310.77L130.62 309.77C130.62 307.03 130.51 303.33 130.24 298.95C130.14 297.45 130.01 295.84 129.87 294.19C130.45 294.05 135.22 292.82 137.02 291.38C138.66 290.08 140.38 287.96 140.32 285.75C140.324 285.229 140.218 284.713 140.01 284.236C139.801 283.759 139.495 283.331 139.11 282.98C138.725 282.629 138.27 282.363 137.776 282.199C137.281 282.036 136.758 281.978 136.24 282.03C133.12 282.43 130.52 287.44 130.01 290.2C130.01 290.36 129.84 292.2 129.78 293.29C129.72 292.62 129.66 291.97 129.59 291.29C129.45 289.92 129.27 288.56 129.09 287.09C128.97 286.39 128.85 285.67 128.74 284.95C128.63 284.23 128.44 283.49 128.29 282.76C127.91 281.05 127.45 279.34 126.94 277.63C128.14 277.51 132.4 277.01 134.22 275.96C136.04 274.91 138.05 273.09 138.33 270.89C138.412 270.376 138.385 269.851 138.251 269.348C138.117 268.845 137.878 268.376 137.551 267.972C137.224 267.567 136.815 267.236 136.351 267C135.888 266.763 135.38 266.627 134.86 266.6C131.72 266.52 128.38 271.08 127.46 273.73C127.4 273.89 126.95 275.86 126.73 276.95C126.41 275.95 126.11 274.9 125.73 273.87C124.73 270.87 123.6 267.94 122.5 264.97L121.5 262.24C121.93 262.24 127 261.72 129.04 260.54C130.85 259.54 132.87 257.67 133.15 255.47C133.234 254.956 133.208 254.43 133.074 253.927C132.941 253.423 132.702 252.954 132.375 252.549C132.047 252.144 131.638 251.812 131.173 251.577C130.709 251.341 130.2 251.206 129.68 251.18C126.54 251.1 123.2 255.67 122.28 258.31C122.21 258.51 121.57 261.31 121.44 262.08C120.72 260.08 120.02 258.08 119.44 256.08C118.605 253.377 117.937 250.625 117.44 247.84C117.64 247.84 122.94 247.34 125.03 246.14C126.84 245.09 128.86 243.26 129.14 241.06C129.222 240.545 129.195 240.019 129.06 239.516C128.925 239.012 128.686 238.543 128.358 238.138C128.029 237.734 127.619 237.402 127.154 237.167C126.69 236.931 126.18 236.796 125.66 236.77C122.53 236.69 119.19 241.26 118.27 243.9C118.21 244.07 117.72 246.24 117.51 247.27H117.33C116.917 244.453 116.756 241.605 116.85 238.76C116.85 237.2 117 235.7 117.15 234.25C118.15 234.25 122.7 234.25 124.7 233.39C126.7 232.53 128.82 230.95 129.34 228.8C129.479 228.296 129.509 227.769 129.43 227.253C129.351 226.736 129.164 226.243 128.881 225.804C128.597 225.365 128.225 224.99 127.787 224.705C127.349 224.421 126.856 224.231 126.34 224.15C123.23 223.73 119.41 227.9 118.21 230.42C118.14 230.56 117.63 232.03 117.27 233.11C117.34 232.45 117.41 231.78 117.5 231.11C117.82 228.76 118.25 226.63 118.65 224.74C118.89 223.67 119.12 222.74 119.35 221.81C120.35 221.31 124.27 219.26 125.62 217.59C126.97 215.92 128.15 213.53 127.62 211.38C127.51 210.862 127.29 210.374 126.976 209.949C126.661 209.523 126.26 209.17 125.798 208.912C125.335 208.654 124.823 208.499 124.296 208.455C123.769 208.412 123.238 208.482 122.74 208.66Z" fill="white"/>
<path d="M66.0599 257C68.5099 256.9 73.4099 254.38 73.4199 254.38C73.4299 254.38 70.7799 251.66 70.5899 251.5C68.3999 249.76 63.1399 247.67 60.5299 249.41C60.1046 249.71 59.7471 250.096 59.4807 250.543C59.2142 250.99 59.0449 251.488 58.9836 252.005C58.9223 252.522 58.9704 253.046 59.1248 253.543C59.2793 254.04 59.5365 254.499 59.8799 254.89C61.2899 256.6 63.9999 257.08 66.0599 257Z" fill="white"/>
</g>
<path d="M94.67 318.35C94.67 318.35 109.54 282.51 117.86 284.07C126.18 285.63 103.59 341.21 103.59 341.21C103.59 341.21 129.75 291.86 147.59 291.86C165.43 291.86 141.05 346.4 118.46 364.58C118.46 364.58 154.13 326.14 174.95 334.46C195.77 342.78 133.32 381.73 133.32 381.73C133.32 381.73 169.59 370.3 165.43 379.13C161.27 387.96 150 389.52 150 389.52L191 391.6H48.29L80.4 388.48C80.4 388.48 47.1 371.86 56 365.1C64.9 358.34 84.54 372.89 84.54 372.89C84.54 372.89 50.65 335.49 57.19 321.47C63.73 307.45 92.87 346.92 92.87 346.92C92.87 346.92 69.08 296.54 73.87 287.7C78.66 278.86 94.67 318.35 94.67 318.35Z" fill="#127D85"/>
<path opacity="0.4" d="M94.67 318.35C94.67 318.35 109.54 282.51 117.86 284.07C126.18 285.63 103.59 341.21 103.59 341.21C103.59 341.21 129.75 291.86 147.59 291.86C165.43 291.86 141.05 346.4 118.46 364.58C118.46 364.58 154.13 326.14 174.95 334.46C195.77 342.78 133.32 381.73 133.32 381.73C133.32 381.73 169.59 370.3 165.43 379.13C161.27 387.96 150 389.52 150 389.52L191 391.6H48.29L80.4 388.48C80.4 388.48 47.1 371.86 56 365.1C64.9 358.34 84.54 372.89 84.54 372.89C84.54 372.89 50.65 335.49 57.19 321.47C63.73 307.45 92.87 346.92 92.87 346.92C92.87 346.92 69.08 296.54 73.87 287.7C78.66 278.86 94.67 318.35 94.67 318.35Z" fill="white"/>
<path d="M89.92 320.24C103 358.89 103 386.24 103 386.24C103 386.24 87.54 386.84 71.48 374.95" stroke="#263238" stroke-linecap="round" stroke-linejoin="round"/>
<path d="M96.46 341.05C99.1521 329.496 102.729 318.166 107.16 307.16" stroke="#263238" stroke-linecap="round" stroke-linejoin="round"/>
<path d="M135.11 318.46L101.81 367.81C101.81 367.81 79.21 348.81 71.48 338.08" stroke="#263238" stroke-linecap="round" stroke-linejoin="round"/>
<path d="M102.4 379.7C102.4 379.7 137.48 363.05 151.76 353.54" stroke="#263238" stroke-linecap="round" stroke-linejoin="round"/>
<path d="M394.62 233.78C394.56 233.78 395.32 230.05 395.39 229.78C396.25 227.12 399.49 222.48 402.62 222.48C403.141 222.496 403.653 222.622 404.122 222.848C404.591 223.075 405.008 223.398 405.344 223.796C405.681 224.193 405.93 224.658 406.076 225.158C406.221 225.658 406.26 226.184 406.19 226.7C405.96 228.9 403.98 230.78 402.19 231.86C400.09 233.17 394.62 233.78 394.62 233.78Z" fill="#127D85"/>
<path d="M388.55 208.66C391.5 209.72 392.97 215.18 392.87 217.98C392.87 218.22 392.31 221.98 392.26 221.98H392.2C392.43 222.84 392.68 223.76 392.93 224.78C393.37 226.66 393.85 228.78 394.22 231.14C394.649 233.668 394.93 236.219 395.06 238.78C395.22 241.65 395.123 244.528 394.77 247.38C394.766 247.413 394.766 247.447 394.77 247.48C395.16 246.65 396.32 244.36 396.42 244.19C397.96 241.85 402.3 238.19 405.33 239.06C405.828 239.212 406.288 239.467 406.68 239.808C407.072 240.15 407.388 240.57 407.607 241.042C407.826 241.514 407.943 242.026 407.95 242.546C407.958 243.066 407.855 243.582 407.65 244.06C406.85 246.13 404.45 247.41 402.44 247.99C400.17 248.63 395.11 247.87 394.71 247.81C394.281 250.702 393.66 253.561 392.85 256.37C392.383 258.01 391.877 259.647 391.33 261.28C391.68 260.57 392.01 259.94 392.06 259.86C393.6 257.52 397.95 253.86 400.97 254.73C401.468 254.882 401.928 255.137 402.32 255.478C402.712 255.82 403.028 256.24 403.247 256.712C403.466 257.184 403.583 257.696 403.59 258.216C403.598 258.736 403.495 259.252 403.29 259.73C402.49 261.79 400.09 263.08 398.08 263.65C396.07 264.22 391.71 263.65 390.57 263.51L389.94 265.38C388.94 268.38 387.85 271.38 386.94 274.32C386.61 275.32 386.32 276.4 386.03 277.44C386.35 276.81 386.62 276.28 386.67 276.21C388.21 273.86 392.55 270.21 395.57 271.08C396.068 271.232 396.528 271.487 396.92 271.828C397.313 272.169 397.629 272.59 397.849 273.061C398.069 273.533 398.187 274.045 398.195 274.565C398.204 275.085 398.104 275.601 397.9 276.08C397.1 278.14 394.69 279.43 392.68 280C390.67 280.57 386.74 280.07 385.38 279.88C385.11 280.95 384.85 282.03 384.64 283.08C384.51 283.8 384.34 284.48 384.25 285.22L383.95 287.36C383.81 288.73 383.65 290.14 383.55 291.48C383.47 292.42 383.41 293.31 383.35 294.2C383.67 293.2 384.35 291.13 384.4 290.97C385.511 288.772 387.162 286.893 389.2 285.51C389.313 285.257 389.451 285.016 389.61 284.79C389.893 284.353 390.265 283.981 390.702 283.698C391.139 283.414 391.631 283.226 392.145 283.146C392.659 283.066 393.185 283.095 393.687 283.232C394.19 283.369 394.657 283.61 395.06 283.94C397.44 285.99 396.84 291.61 395.75 294.19C395.69 294.34 394.8 295.92 394.23 296.9C394.66 296.37 395.06 295.9 395.51 295.32C396.38 294.25 397.28 293.21 398.24 292.09L399.71 290.5C400.19 289.96 400.77 289.45 401.3 288.91C402.55 287.7 403.88 286.53 405.25 285.39C404.32 284.62 401.04 281.86 400.1 279.98C399.16 278.1 398.49 275.47 399.47 273.48C399.685 273.005 399.998 272.581 400.388 272.235C400.779 271.89 401.237 271.63 401.734 271.473C402.232 271.317 402.756 271.267 403.274 271.326C403.792 271.386 404.292 271.554 404.74 271.82C407.39 273.48 407.66 279.13 406.97 281.82C406.97 281.99 406.21 283.89 405.8 284.92C406.63 284.23 407.45 283.55 408.31 282.92C410.79 281.01 413.36 279.15 415.91 277.28L418.24 275.55C417.91 275.28 413.95 272.08 412.89 269.97C411.96 268.1 411.28 265.46 412.26 263.48C412.474 263.004 412.787 262.579 413.176 262.232C413.566 261.886 414.025 261.625 414.522 261.467C415.019 261.31 415.544 261.259 416.063 261.318C416.581 261.377 417.081 261.545 417.53 261.81C420.19 263.48 420.45 269.12 419.76 271.81C419.71 272.01 418.68 274.73 418.39 275.41C420.09 274.14 421.78 272.86 423.39 271.53C425.579 269.738 427.649 267.808 429.59 265.75C429.44 265.63 425.29 262.3 424.21 260.15C423.27 258.28 422.6 255.64 423.58 253.65C423.795 253.176 424.106 252.752 424.495 252.406C424.884 252.06 425.342 251.8 425.838 251.643C426.334 251.485 426.858 251.434 427.375 251.492C427.892 251.55 428.391 251.716 428.84 251.98C431.5 253.65 431.77 259.3 431.08 261.98C431.03 262.16 430.25 264.24 429.86 265.21C429.906 265.249 429.956 265.283 430.01 265.31C431.907 263.186 433.61 260.897 435.1 258.47C435.94 257.15 436.66 255.83 437.34 254.54C436.5 254 432.71 251.54 431.52 249.66C430.33 247.78 429.43 245.35 430.18 243.27C430.342 242.775 430.606 242.32 430.955 241.934C431.305 241.547 431.732 241.239 432.208 241.029C432.684 240.819 433.199 240.711 433.72 240.713C434.241 240.715 434.755 240.826 435.23 241.04C438.06 242.4 438.94 248.04 438.55 250.76C438.55 250.91 438.15 252.42 437.86 253.51C438.15 252.93 438.47 252.32 438.74 251.75C439.74 249.62 440.59 247.6 441.29 245.81C441.69 244.81 442.02 243.81 442.29 242.97C441.74 242.02 439.6 238.13 439.39 235.97C439.18 233.81 439.52 231.18 441.15 229.68C441.521 229.315 441.965 229.032 442.453 228.849C442.941 228.667 443.461 228.589 443.981 228.621C444.501 228.653 445.008 228.794 445.469 229.035C445.931 229.276 446.337 229.612 446.66 230.02C448.54 232.53 446.75 237.9 445.13 240.18C444.99 240.38 442.44 243.18 442.41 243.18V243.12C442.13 243.97 441.83 244.87 441.47 245.86C440.81 247.67 440.04 249.71 439.05 251.86C438.004 254.205 436.825 256.489 435.52 258.7C434.064 261.177 432.391 263.519 430.52 265.7L430.45 265.77C431.23 265.29 433.45 264.02 433.64 263.94C436.22 262.83 441.84 262.21 443.9 264.57C444.232 264.972 444.475 265.439 444.614 265.94C444.753 266.442 444.785 266.968 444.708 267.483C444.631 267.998 444.446 268.491 444.165 268.93C443.885 269.369 443.515 269.743 443.08 270.03C441.27 271.31 438.56 271.03 436.56 270.43C434.31 269.72 430.56 266.29 430.22 266.02C428.264 268.193 426.166 270.234 423.94 272.13C422.65 273.24 421.31 274.32 419.94 275.39C420.63 275 421.25 274.65 421.34 274.61C423.91 273.5 429.53 272.88 431.59 275.24C431.923 275.641 432.168 276.108 432.308 276.61C432.448 277.112 432.48 277.638 432.403 278.154C432.325 278.669 432.14 279.162 431.859 279.601C431.577 280.04 431.206 280.415 430.77 280.7C428.97 281.98 426.25 281.7 424.26 281.1C422.27 280.5 418.94 277.6 418.08 276.83C417.55 277.24 417.08 277.65 416.51 278.05C414 279.98 411.51 281.89 409.06 283.84C408.21 284.53 407.4 285.23 406.58 285.94L407.8 285.26C410.37 284.16 415.99 283.53 418.05 285.9C418.383 286.301 418.628 286.768 418.768 287.27C418.908 287.772 418.94 288.298 418.863 288.814C418.785 289.329 418.6 289.822 418.319 290.261C418.037 290.7 417.666 291.075 417.23 291.36C415.42 292.64 412.71 292.36 410.72 291.75C408.73 291.14 405.72 288.53 404.72 287.63C403.91 288.37 403.09 289.12 402.34 289.88C401.83 290.41 401.34 290.88 400.84 291.45L399.4 293.08C398.53 294.14 397.62 295.23 396.79 296.29C396.21 297.03 395.67 297.74 395.13 298.45C395.96 297.76 397.64 296.45 397.79 296.34C400.16 294.85 405.63 293.39 408.02 295.41C408.407 295.758 408.717 296.183 408.929 296.659C409.141 297.135 409.251 297.649 409.251 298.17C409.251 298.691 409.141 299.205 408.929 299.681C408.717 300.157 408.407 300.582 408.02 300.93C406.42 302.47 403.7 302.63 401.64 302.31C399.36 301.96 395.24 299.31 394.73 298.94C393.83 300.12 392.97 301.28 392.17 302.38C389.4 306.21 387.24 309.51 385.76 311.83C385.76 311.92 385.66 311.99 385.61 312.07L383.69 311.14L383.99 310.68C385.54 308.37 387.8 305.09 390.68 301.28C391.59 300.07 392.58 298.81 393.61 297.51C392.538 296.344 391.536 295.115 390.61 293.83C388.4 294.69 383.82 294.72 383.22 294.72C383.13 296.21 383.05 297.65 382.99 299.01C382.79 303.74 382.81 307.68 382.86 310.43V310.75L380.75 309.75C380.75 307.01 380.86 303.31 381.14 298.93C381.23 297.43 381.36 295.82 381.51 294.17C380.92 294.03 376.15 292.8 374.35 291.36C372.72 290.06 371 287.94 371.06 285.73C371.055 285.209 371.159 284.692 371.367 284.214C371.575 283.736 371.882 283.307 372.267 282.956C372.652 282.605 373.107 282.339 373.602 282.176C374.098 282.013 374.622 281.956 375.14 282.01C378.25 282.41 380.86 287.42 381.37 290.18C381.37 290.34 381.53 292.18 381.59 293.27C381.66 292.6 381.71 291.95 381.79 291.27C381.92 289.9 382.1 288.54 382.29 287.07C382.4 286.37 382.52 285.65 382.63 284.93C382.74 284.21 382.93 283.47 383.08 282.74C383.46 281.03 383.92 279.32 384.43 277.61C383.23 277.49 378.98 276.99 377.15 275.94C375.32 274.89 373.32 273.07 373.05 270.87C372.966 270.356 372.992 269.83 373.126 269.327C373.259 268.823 373.498 268.354 373.825 267.949C374.153 267.544 374.562 267.212 375.027 266.977C375.491 266.741 376 266.606 376.52 266.58C379.65 266.5 382.99 271.06 383.91 273.71C383.97 273.87 384.42 275.84 384.64 276.93C384.96 275.93 385.26 274.88 385.64 273.85C386.64 270.85 387.77 267.92 388.87 264.95C389.21 264.04 389.53 263.13 389.87 262.22C389.44 262.22 384.37 261.7 382.33 260.52C380.52 259.52 378.5 257.65 378.22 255.45C378.138 254.936 378.165 254.411 378.299 253.908C378.433 253.405 378.672 252.936 378.999 252.532C379.326 252.127 379.735 251.796 380.199 251.56C380.662 251.323 381.17 251.187 381.69 251.16C384.83 251.08 388.17 255.65 389.09 258.29C389.16 258.49 389.8 261.29 389.93 262.06C390.65 260.06 391.36 258.06 391.93 256.06C392.775 253.36 393.443 250.607 393.93 247.82C393.73 247.82 388.44 247.32 386.35 246.12C384.53 245.07 382.51 243.24 382.24 241.04C382.156 240.526 382.182 240 382.316 239.497C382.449 238.993 382.688 238.524 383.015 238.119C383.343 237.714 383.752 237.382 384.217 237.147C384.681 236.911 385.19 236.776 385.71 236.75C388.84 236.67 392.18 241.24 393.1 243.88C393.16 244.05 393.66 246.22 393.87 247.25H394.04C394.453 244.433 394.614 241.585 394.52 238.74C394.52 237.18 394.37 235.68 394.22 234.23C393.22 234.23 388.68 234.23 386.68 233.37C384.68 232.51 382.55 230.93 382.03 228.78C381.891 228.276 381.861 227.749 381.94 227.233C382.019 226.716 382.206 226.223 382.489 225.784C382.773 225.345 383.145 224.97 383.583 224.685C384.021 224.4 384.514 224.211 385.03 224.13C388.14 223.71 391.96 227.88 393.17 230.4C393.23 230.54 393.75 232.01 394.1 233.09C394.03 232.43 393.96 231.76 393.87 231.09C393.56 228.74 393.12 226.61 392.72 224.72C392.48 223.65 392.25 222.72 392.02 221.79C391.02 221.29 387.1 219.24 385.76 217.57C384.42 215.9 383.22 213.51 383.76 211.36C383.875 210.855 384.094 210.379 384.403 209.964C384.712 209.549 385.105 209.202 385.557 208.948C386.008 208.694 386.507 208.537 387.023 208.487C387.538 208.438 388.059 208.496 388.55 208.66Z" fill="#127D85"/>
<path d="M445.23 257C442.78 256.9 437.88 254.38 437.88 254.38C437.88 254.38 440.51 251.66 440.7 251.5C442.89 249.76 448.15 247.67 450.76 249.41C451.187 249.709 451.546 250.095 451.813 250.542C452.08 250.989 452.25 251.487 452.311 252.005C452.373 252.522 452.324 253.046 452.169 253.544C452.014 254.041 451.755 254.5 451.41 254.89C450 256.6 447.32 257.08 445.23 257Z" fill="#127D85"/>
<g opacity="0.5">
<path d="M394.62 233.78C394.56 233.78 395.32 230.05 395.39 229.78C396.25 227.12 399.49 222.48 402.62 222.48C403.141 222.496 403.653 222.622 404.122 222.848C404.591 223.075 405.008 223.398 405.344 223.796C405.681 224.193 405.93 224.658 406.076 225.158C406.221 225.658 406.26 226.184 406.19 226.7C405.96 228.9 403.98 230.78 402.19 231.86C400.09 233.17 394.62 233.78 394.62 233.78Z" fill="white"/>
<path d="M388.55 208.66C391.5 209.72 392.97 215.18 392.87 217.98C392.87 218.22 392.31 221.98 392.26 221.98H392.2C392.43 222.84 392.68 223.76 392.93 224.78C393.37 226.66 393.85 228.78 394.22 231.14C394.649 233.668 394.93 236.219 395.06 238.78C395.22 241.65 395.123 244.528 394.77 247.38C394.766 247.413 394.766 247.447 394.77 247.48C395.16 246.65 396.32 244.36 396.42 244.19C397.96 241.85 402.3 238.19 405.33 239.06C405.828 239.212 406.288 239.467 406.68 239.808C407.072 240.15 407.388 240.57 407.607 241.042C407.826 241.514 407.943 242.026 407.95 242.546C407.958 243.066 407.855 243.582 407.65 244.06C406.85 246.13 404.45 247.41 402.44 247.99C400.17 248.63 395.11 247.87 394.71 247.81C394.281 250.702 393.66 253.561 392.85 256.37C392.383 258.01 391.877 259.647 391.33 261.28C391.68 260.57 392.01 259.94 392.06 259.86C393.6 257.52 397.95 253.86 400.97 254.73C401.468 254.882 401.928 255.137 402.32 255.478C402.712 255.82 403.028 256.24 403.247 256.712C403.466 257.184 403.583 257.696 403.59 258.216C403.598 258.736 403.495 259.252 403.29 259.73C402.49 261.79 400.09 263.08 398.08 263.65C396.07 264.22 391.71 263.65 390.57 263.51L389.94 265.38C388.94 268.38 387.85 271.38 386.94 274.32C386.61 275.32 386.32 276.4 386.03 277.44C386.35 276.81 386.62 276.28 386.67 276.21C388.21 273.86 392.55 270.21 395.57 271.08C396.068 271.232 396.528 271.487 396.92 271.828C397.313 272.169 397.629 272.59 397.849 273.061C398.069 273.533 398.187 274.045 398.195 274.565C398.204 275.085 398.104 275.601 397.9 276.08C397.1 278.14 394.69 279.43 392.68 280C390.67 280.57 386.74 280.07 385.38 279.88C385.11 280.95 384.85 282.03 384.64 283.08C384.51 283.8 384.34 284.48 384.25 285.22L383.95 287.36C383.81 288.73 383.65 290.14 383.55 291.48C383.47 292.42 383.41 293.31 383.35 294.2C383.67 293.2 384.35 291.13 384.4 290.97C385.511 288.772 387.162 286.893 389.2 285.51C389.313 285.257 389.451 285.016 389.61 284.79C389.893 284.353 390.265 283.981 390.702 283.698C391.139 283.414 391.631 283.226 392.145 283.146C392.659 283.066 393.185 283.095 393.687 283.232C394.19 283.369 394.657 283.61 395.06 283.94C397.44 285.99 396.84 291.61 395.75 294.19C395.69 294.34 394.8 295.92 394.23 296.9C394.66 296.37 395.06 295.9 395.51 295.32C396.38 294.25 397.28 293.21 398.24 292.09L399.71 290.5C400.19 289.96 400.77 289.45 401.3 288.91C402.55 287.7 403.88 286.53 405.25 285.39C404.32 284.62 401.04 281.86 400.1 279.98C399.16 278.1 398.49 275.47 399.47 273.48C399.685 273.005 399.998 272.581 400.388 272.235C400.779 271.89 401.237 271.63 401.734 271.473C402.232 271.317 402.756 271.267 403.274 271.326C403.792 271.386 404.292 271.554 404.74 271.82C407.39 273.48 407.66 279.13 406.97 281.82C406.97 281.99 406.21 283.89 405.8 284.92C406.63 284.23 407.45 283.55 408.31 282.92C410.79 281.01 413.36 279.15 415.91 277.28L418.24 275.55C417.91 275.28 413.95 272.08 412.89 269.97C411.96 268.1 411.28 265.46 412.26 263.48C412.474 263.004 412.787 262.579 413.176 262.232C413.566 261.886 414.025 261.625 414.522 261.467C415.019 261.31 415.544 261.259 416.063 261.318C416.581 261.377 417.081 261.545 417.53 261.81C420.19 263.48 420.45 269.12 419.76 271.81C419.71 272.01 418.68 274.73 418.39 275.41C420.09 274.14 421.78 272.86 423.39 271.53C425.579 269.738 427.649 267.808 429.59 265.75C429.44 265.63 425.29 262.3 424.21 260.15C423.27 258.28 422.6 255.64 423.58 253.65C423.795 253.176 424.106 252.752 424.495 252.406C424.884 252.06 425.342 251.8 425.838 251.643C426.334 251.485 426.858 251.434 427.375 251.492C427.892 251.55 428.391 251.716 428.84 251.98C431.5 253.65 431.77 259.3 431.08 261.98C431.03 262.16 430.25 264.24 429.86 265.21C429.906 265.249 429.956 265.283 430.01 265.31C431.907 263.186 433.61 260.897 435.1 258.47C435.94 257.15 436.66 255.83 437.34 254.54C436.5 254 432.71 251.54 431.52 249.66C430.33 247.78 429.43 245.35 430.18 243.27C430.342 242.775 430.606 242.32 430.955 241.934C431.305 241.547 431.732 241.239 432.208 241.029C432.684 240.819 433.199 240.711 433.72 240.713C434.241 240.715 434.755 240.826 435.23 241.04C438.06 242.4 438.94 248.04 438.55 250.76C438.55 250.91 438.15 252.42 437.86 253.51C438.15 252.93 438.47 252.32 438.74 251.75C439.74 249.62 440.59 247.6 441.29 245.81C441.69 244.81 442.02 243.81 442.29 242.97C441.74 242.02 439.6 238.13 439.39 235.97C439.18 233.81 439.52 231.18 441.15 229.68C441.521 229.315 441.965 229.032 442.453 228.849C442.941 228.667 443.461 228.589 443.981 228.621C444.501 228.653 445.008 228.794 445.469 229.035C445.931 229.276 446.337 229.612 446.66 230.02C448.54 232.53 446.75 237.9 445.13 240.18C444.99 240.38 442.44 243.18 442.41 243.18V243.12C442.13 243.97 441.83 244.87 441.47 245.86C440.81 247.67 440.04 249.71 439.05 251.86C438.004 254.205 436.825 256.489 435.52 258.7C434.064 261.177 432.391 263.519 430.52 265.7L430.45 265.77C431.23 265.29 433.45 264.02 433.64 263.94C436.22 262.83 441.84 262.21 443.9 264.57C444.232 264.972 444.475 265.439 444.614 265.94C444.753 266.442 444.785 266.968 444.708 267.483C444.631 267.998 444.446 268.491 444.165 268.93C443.885 269.369 443.515 269.743 443.08 270.03C441.27 271.31 438.56 271.03 436.56 270.43C434.31 269.72 430.56 266.29 430.22 266.02C428.264 268.193 426.166 270.234 423.94 272.13C422.65 273.24 421.31 274.32 419.94 275.39C420.63 275 421.25 274.65 421.34 274.61C423.91 273.5 429.53 272.88 431.59 275.24C431.923 275.641 432.168 276.108 432.308 276.61C432.448 277.112 432.48 277.638 432.403 278.154C432.325 278.669 432.14 279.162 431.859 279.601C431.577 280.04 431.206 280.415 430.77 280.7C428.97 281.98 426.25 281.7 424.26 281.1C422.27 280.5 418.94 277.6 418.08 276.83C417.55 277.24 417.08 277.65 416.51 278.05C414 279.98 411.51 281.89 409.06 283.84C408.21 284.53 407.4 285.23 406.58 285.94L407.8 285.26C410.37 284.16 415.99 283.53 418.05 285.9C418.383 286.301 418.628 286.768 418.768 287.27C418.908 287.772 418.94 288.298 418.863 288.814C418.785 289.329 418.6 289.822 418.319 290.261C418.037 290.7 417.666 291.075 417.23 291.36C415.42 292.64 412.71 292.36 410.72 291.75C408.73 291.14 405.72 288.53 404.72 287.63C403.91 288.37 403.09 289.12 402.34 289.88C401.83 290.41 401.34 290.88 400.84 291.45L399.4 293.08C398.53 294.14 397.62 295.23 396.79 296.29C396.21 297.03 395.67 297.74 395.13 298.45C395.96 297.76 397.64 296.45 397.79 296.34C400.16 294.85 405.63 293.39 408.02 295.41C408.407 295.758 408.717 296.183 408.929 296.659C409.141 297.135 409.251 297.649 409.251 298.17C409.251 298.691 409.141 299.205 408.929 299.681C408.717 300.157 408.407 300.582 408.02 300.93C406.42 302.47 403.7 302.63 401.64 302.31C399.36 301.96 395.24 299.31 394.73 298.94C393.83 300.12 392.97 301.28 392.17 302.38C389.4 306.21 387.24 309.51 385.76 311.83C385.76 311.92 385.66 311.99 385.61 312.07L383.69 311.14L383.99 310.68C385.54 308.37 387.8 305.09 390.68 301.28C391.59 300.07 392.58 298.81 393.61 297.51C392.538 296.344 391.536 295.115 390.61 293.83C388.4 294.69 383.82 294.72 383.22 294.72C383.13 296.21 383.05 297.65 382.99 299.01C382.79 303.74 382.81 307.68 382.86 310.43V310.75L380.75 309.75C380.75 307.01 380.86 303.31 381.14 298.93C381.23 297.43 381.36 295.82 381.51 294.17C380.92 294.03 376.15 292.8 374.35 291.36C372.72 290.06 371 287.94 371.06 285.73C371.055 285.209 371.159 284.692 371.367 284.214C371.575 283.736 371.882 283.307 372.267 282.956C372.652 282.605 373.107 282.339 373.602 282.176C374.098 282.013 374.622 281.956 375.14 282.01C378.25 282.41 380.86 287.42 381.37 290.18C381.37 290.34 381.53 292.18 381.59 293.27C381.66 292.6 381.71 291.95 381.79 291.27C381.92 289.9 382.1 288.54 382.29 287.07C382.4 286.37 382.52 285.65 382.63 284.93C382.74 284.21 382.93 283.47 383.08 282.74C383.46 281.03 383.92 279.32 384.43 277.61C383.23 277.49 378.98 276.99 377.15 275.94C375.32 274.89 373.32 273.07 373.05 270.87C372.966 270.356 372.992 269.83 373.126 269.327C373.259 268.823 373.498 268.354 373.825 267.949C374.153 267.544 374.562 267.212 375.027 266.977C375.491 266.741 376 266.606 376.52 266.58C379.65 266.5 382.99 271.06 383.91 273.71C383.97 273.87 384.42 275.84 384.64 276.93C384.96 275.93 385.26 274.88 385.64 273.85C386.64 270.85 387.77 267.92 388.87 264.95C389.21 264.04 389.53 263.13 389.87 262.22C389.44 262.22 384.37 261.7 382.33 260.52C380.52 259.52 378.5 257.65 378.22 255.45C378.138 254.936 378.165 254.411 378.299 253.908C378.433 253.405 378.672 252.936 378.999 252.532C379.326 252.127 379.735 251.796 380.199 251.56C380.662 251.323 381.17 251.187 381.69 251.16C384.83 251.08 388.17 255.65 389.09 258.29C389.16 258.49 389.8 261.29 389.93 262.06C390.65 260.06 391.36 258.06 391.93 256.06C392.775 253.36 393.443 250.607 393.93 247.82C393.73 247.82 388.44 247.32 386.35 246.12C384.53 245.07 382.51 243.24 382.24 241.04C382.156 240.526 382.182 240 382.316 239.497C382.449 238.993 382.688 238.524 383.015 238.119C383.343 237.714 383.752 237.382 384.217 237.147C384.681 236.911 385.19 236.776 385.71 236.75C388.84 236.67 392.18 241.24 393.1 243.88C393.16 244.05 393.66 246.22 393.87 247.25H394.04C394.453 244.433 394.614 241.585 394.52 238.74C394.52 237.18 394.37 235.68 394.22 234.23C393.22 234.23 388.68 234.23 386.68 233.37C384.68 232.51 382.55 230.93 382.03 228.78C381.891 228.276 381.861 227.749 381.94 227.233C382.019 226.716 382.206 226.223 382.489 225.784C382.773 225.345 383.145 224.97 383.583 224.685C384.021 224.4 384.514 224.211 385.03 224.13C388.14 223.71 391.96 227.88 393.17 230.4C393.23 230.54 393.75 232.01 394.1 233.09C394.03 232.43 393.96 231.76 393.87 231.09C393.56 228.74 393.12 226.61 392.72 224.72C392.48 223.65 392.25 222.72 392.02 221.79C391.02 221.29 387.1 219.24 385.76 217.57C384.42 215.9 383.22 213.51 383.76 211.36C383.875 210.855 384.094 210.379 384.403 209.964C384.712 209.549 385.105 209.202 385.557 208.948C386.008 208.694 386.507 208.537 387.023 208.487C387.538 208.438 388.059 208.496 388.55 208.66Z" fill="white"/>
<path d="M445.23 257C442.78 256.9 437.88 254.38 437.88 254.38C437.88 254.38 440.51 251.66 440.7 251.5C442.89 249.76 448.15 247.67 450.76 249.41C451.187 249.709 451.546 250.095 451.813 250.542C452.08 250.989 452.25 251.487 452.311 252.005C452.373 252.522 452.324 253.046 452.169 253.544C452.014 254.041 451.755 254.5 451.41 254.89C450 256.6 447.32 257.08 445.23 257Z" fill="white"/>
</g>
<path d="M416.62 318.35C416.62 318.35 401.75 282.51 393.43 284.07C385.11 285.63 407.7 341.21 407.7 341.21C407.7 341.21 381.54 291.86 363.7 291.86C345.86 291.86 370.24 346.4 392.84 364.58C392.84 364.58 357.16 326.14 336.35 334.46C315.54 342.78 378 381.73 378 381.73C378 381.73 341.73 370.3 345.89 379.13C350.05 387.96 361.35 389.52 361.35 389.52L320.35 391.6H463L430.89 388.48C430.89 388.48 464.19 371.86 455.27 365.1C446.35 358.34 426.73 372.89 426.73 372.89C426.73 372.89 460.62 335.49 454.08 321.47C447.54 307.45 418.4 346.92 418.4 346.92C418.4 346.92 442.19 296.54 437.4 287.7C432.61 278.86 416.62 318.35 416.62 318.35Z" fill="#127D85"/>
<path opacity="0.4" d="M416.62 318.35C416.62 318.35 401.75 282.51 393.43 284.07C385.11 285.63 407.7 341.21 407.7 341.21C407.7 341.21 381.54 291.86 363.7 291.86C345.86 291.86 370.24 346.4 392.84 364.58C392.84 364.58 357.16 326.14 336.35 334.46C315.54 342.78 378 381.73 378 381.73C378 381.73 341.73 370.3 345.89 379.13C350.05 387.96 361.35 389.52 361.35 389.52L320.35 391.6H463L430.89 388.48C430.89 388.48 464.19 371.86 455.27 365.1C446.35 358.34 426.73 372.89 426.73 372.89C426.73 372.89 460.62 335.49 454.08 321.47C447.54 307.45 418.4 346.92 418.4 346.92C418.4 346.92 442.19 296.54 437.4 287.7C432.61 278.86 416.62 318.35 416.62 318.35Z" fill="white"/>
<path d="M421.38 320.24C408.3 358.89 408.3 386.24 408.3 386.24C408.3 386.24 423.76 386.84 439.81 374.95" stroke="#263238" stroke-linecap="round" stroke-linejoin="round"/>
<path d="M414.84 341.05C412.141 329.496 408.561 318.166 404.13 307.16" stroke="#263238" stroke-linecap="round" stroke-linejoin="round"/>
<path d="M376.19 318.46L409.48 367.81C409.48 367.81 432.08 348.81 439.81 338.08" stroke="#263238" stroke-linecap="round" stroke-linejoin="round"/>
<path d="M408.89 379.7C408.89 379.7 373.81 363.05 359.54 353.54" stroke="#263238" stroke-linecap="round" stroke-linejoin="round"/>
<path d="M186.7 139.04L178.53 126H106.57V139.04V143.73V360.67H402.77V139.04H186.7Z" fill="#263238"/>
<path d="M400.82 145.02H108.77V355.94H400.82V145.02Z" fill="white"/>
<mask id="mask0_1_64572" style="mask-type:luminance" maskUnits="userSpaceOnUse" x="108" y="145" width="293" height="211">
<path d="M400.82 145.02H108.77V355.94H400.82V145.02Z" fill="white"/>
</mask>
<g mask="url(#mask0_1_64572)">
<path opacity="0.17" d="M402.25 143.21H395.47V357.54H402.25V143.21Z" fill="black"/>
<path opacity="0.17" d="M402.25 272.8H395.47V355.8H402.25V272.8Z" fill="black"/>
<path d="M401.2 142.17H107.61V153.64H401.2V142.17Z" fill="#127D85" stroke="#263238" stroke-miterlimit="10"/>
</g>
<path d="M400.82 145.02H108.77V355.94H400.82V145.02Z" stroke="#263238" stroke-linecap="round" stroke-linejoin="round"/>
<g opacity="0.17">
<path d="M260.93 164.7H240.5C240.264 164.7 240.03 164.653 239.811 164.563C239.593 164.472 239.394 164.34 239.227 164.173C239.06 164.006 238.927 163.807 238.837 163.589C238.747 163.37 238.7 163.136 238.7 162.9C238.699 162.663 238.744 162.428 238.834 162.208C238.924 161.989 239.056 161.789 239.224 161.621C239.391 161.453 239.59 161.319 239.809 161.228C240.028 161.137 240.263 161.09 240.5 161.09H260.93C261.167 161.09 261.402 161.137 261.621 161.228C261.84 161.319 262.039 161.453 262.206 161.621C262.374 161.789 262.506 161.989 262.596 162.208C262.686 162.428 262.731 162.663 262.73 162.9C262.73 163.136 262.683 163.37 262.593 163.589C262.503 163.807 262.37 164.006 262.203 164.173C262.036 164.34 261.837 164.472 261.619 164.563C261.4 164.653 261.166 164.7 260.93 164.7Z" fill="black"/>
<path d="M301.79 164.7H281.36C280.883 164.697 280.427 164.507 280.09 164.17C279.753 163.833 279.563 163.377 279.56 162.9C279.56 162.422 279.749 161.963 280.087 161.624C280.424 161.284 280.882 161.093 281.36 161.09H301.79C302.27 161.09 302.73 161.281 303.07 161.62C303.409 161.96 303.6 162.42 303.6 162.9C303.597 163.378 303.406 163.836 303.066 164.173C302.727 164.511 302.268 164.7 301.79 164.7Z" fill="black"/>
<path d="M342.66 164.7H322.23C321.752 164.7 321.293 164.511 320.954 164.173C320.614 163.836 320.423 163.378 320.42 162.9C320.42 162.42 320.611 161.96 320.95 161.62C321.289 161.281 321.75 161.09 322.23 161.09H342.66C343.138 161.093 343.596 161.284 343.933 161.624C344.271 161.963 344.46 162.422 344.46 162.9C344.457 163.377 344.267 163.833 343.93 164.17C343.593 164.507 343.136 164.697 342.66 164.7Z" fill="black"/>
<path d="M383.52 164.7H363.09C362.854 164.7 362.62 164.653 362.401 164.563C362.183 164.472 361.984 164.34 361.817 164.173C361.65 164.006 361.518 163.807 361.427 163.589C361.337 163.37 361.29 163.136 361.29 162.9C361.289 162.663 361.334 162.428 361.424 162.208C361.514 161.989 361.646 161.789 361.814 161.621C361.981 161.453 362.18 161.319 362.399 161.228C362.618 161.137 362.853 161.09 363.09 161.09H383.52C383.998 161.093 384.456 161.284 384.793 161.624C385.131 161.963 385.32 162.422 385.32 162.9C385.317 163.377 385.127 163.833 384.79 164.17C384.453 164.507 383.997 164.697 383.52 164.7Z" fill="black"/>
</g>
<path d="M136.37 250.79H167.24" stroke="#263238" stroke-width="3" stroke-linecap="round" stroke-linejoin="round"/>
<path d="M166.69 255.6H170.06" stroke="#263238" stroke-linecap="round" stroke-linejoin="round"/>
<path d="M147.36 255.6H164.65" stroke="#263238" stroke-linecap="round" stroke-linejoin="round"/>
<path d="M134.01 255.6H145.53" stroke="#263238" stroke-linecap="round" stroke-linejoin="round"/>
<path d="M155.9 260.41H170.06" stroke="#263238" stroke-linecap="round" stroke-linejoin="round"/>
<path d="M148.17 260.41H153.67" stroke="#263238" stroke-linecap="round" stroke-linejoin="round"/>
<path d="M134.01 260.41H145.73" stroke="#263238" stroke-linecap="round" stroke-linejoin="round"/>
<path d="M141.66 265.21H170.06" stroke="#263238" stroke-linecap="round" stroke-linejoin="round"/>
<path d="M134.01 265.21H139.02" stroke="#263238" stroke-linecap="round" stroke-linejoin="round"/>
<path d="M163.03 270.02H170.06" stroke="#263238" stroke-linecap="round" stroke-linejoin="round"/>
<path d="M149.6 270.02H160.58" stroke="#263238" stroke-linecap="round" stroke-linejoin="round"/>
<path d="M134.01 270.02H147.36" stroke="#263238" stroke-linecap="round" stroke-linejoin="round"/>
<path d="M145.73 274.83H170.06" stroke="#263238" stroke-linecap="round" stroke-linejoin="round"/>
<path d="M134.01 274.83H143.49" stroke="#263238" stroke-linecap="round" stroke-linejoin="round"/>
<path d="M206.77 250.79H237.64" stroke="#263238" stroke-width="3" stroke-linecap="round" stroke-linejoin="round"/>
<path d="M237.09 255.6H240.46" stroke="#263238" stroke-linecap="round" stroke-linejoin="round"/>
<path d="M217.76 255.6H235.05" stroke="#263238" stroke-linecap="round" stroke-linejoin="round"/>
<path d="M204.41 255.6H215.93" stroke="#263238" stroke-linecap="round" stroke-linejoin="round"/>
<path d="M226.3 260.41H240.46" stroke="#263238" stroke-linecap="round" stroke-linejoin="round"/>
<path d="M218.57 260.41H224.07" stroke="#263238" stroke-linecap="round" stroke-linejoin="round"/>
<path d="M204.41 260.41H216.13" stroke="#263238" stroke-linecap="round" stroke-linejoin="round"/>
<path d="M212.06 265.21H240.46" stroke="#263238" stroke-linecap="round" stroke-linejoin="round"/>
<path d="M204.41 265.21H209.42" stroke="#263238" stroke-linecap="round" stroke-linejoin="round"/>
<path d="M233.43 270.02H240.46" stroke="#263238" stroke-linecap="round" stroke-linejoin="round"/>
<path d="M220 270.02H230.98" stroke="#263238" stroke-linecap="round" stroke-linejoin="round"/>
<path d="M204.41 270.02H217.76" stroke="#263238" stroke-linecap="round" stroke-linejoin="round"/>
<path d="M216.13 274.83H240.46" stroke="#263238" stroke-linecap="round" stroke-linejoin="round"/>
<path d="M204.41 274.83H213.89" stroke="#263238" stroke-linecap="round" stroke-linejoin="round"/>
<path d="M277.17 250.79H308.04" stroke="#263238" stroke-width="3" stroke-linecap="round" stroke-linejoin="round"/>
<path d="M307.49 255.6H310.86" stroke="#263238" stroke-linecap="round" stroke-linejoin="round"/>
<path d="M288.16 255.6H305.45" stroke="#263238" stroke-linecap="round" stroke-linejoin="round"/>
<path d="M274.81 255.6H286.33" stroke="#263238" stroke-linecap="round" stroke-linejoin="round"/>
<path d="M296.7 260.41H310.86" stroke="#263238" stroke-linecap="round" stroke-linejoin="round"/>
<path d="M288.97 260.41H294.47" stroke="#263238" stroke-linecap="round" stroke-linejoin="round"/>
<path d="M274.81 260.41H286.53" stroke="#263238" stroke-linecap="round" stroke-linejoin="round"/>
<path d="M282.46 265.21H310.86" stroke="#263238" stroke-linecap="round" stroke-linejoin="round"/>
<path d="M274.81 265.21H279.82" stroke="#263238" stroke-linecap="round" stroke-linejoin="round"/>
<path d="M303.83 270.02H310.86" stroke="#263238" stroke-linecap="round" stroke-linejoin="round"/>
<path d="M290.4 270.02H301.38" stroke="#263238" stroke-linecap="round" stroke-linejoin="round"/>
<path d="M274.81 270.02H288.16" stroke="#263238" stroke-linecap="round" stroke-linejoin="round"/>
<path d="M286.53 274.83H310.86" stroke="#263238" stroke-linecap="round" stroke-linejoin="round"/>
<path d="M274.81 274.83H284.29" stroke="#263238" stroke-linecap="round" stroke-linejoin="round"/>
<path d="M347.57 250.79H378.44" stroke="#263238" stroke-width="3" stroke-linecap="round" stroke-linejoin="round"/>
<path d="M377.89 255.6H381.26" stroke="#263238" stroke-linecap="round" stroke-linejoin="round"/>
<path d="M358.56 255.6H375.85" stroke="#263238" stroke-linecap="round" stroke-linejoin="round"/>
<path d="M345.21 255.6H356.73" stroke="#263238" stroke-linecap="round" stroke-linejoin="round"/>
<path d="M367.1 260.41H381.26" stroke="#263238" stroke-linecap="round" stroke-linejoin="round"/>
<path d="M359.37 260.41H364.87" stroke="#263238" stroke-linecap="round" stroke-linejoin="round"/>
<path d="M345.21 260.41H356.93" stroke="#263238" stroke-linecap="round" stroke-linejoin="round"/>
<path d="M352.86 265.21H381.26" stroke="#263238" stroke-linecap="round" stroke-linejoin="round"/>
<path d="M345.21 265.21H350.22" stroke="#263238" stroke-linecap="round" stroke-linejoin="round"/>
<path d="M374.23 270.02H381.26" stroke="#263238" stroke-linecap="round" stroke-linejoin="round"/>
<path d="M360.8 270.02H371.78" stroke="#263238" stroke-linecap="round" stroke-linejoin="round"/>
<path d="M345.21 270.02H358.56" stroke="#263238" stroke-linecap="round" stroke-linejoin="round"/>
<path d="M356.93 274.83H381.26" stroke="#263238" stroke-linecap="round" stroke-linejoin="round"/>
<path d="M345.21 274.83H354.69" stroke="#263238" stroke-linecap="round" stroke-linejoin="round"/>
<path d="M390.77 235.3H118.77V179.19H390.77V235.3Z" fill="#127D85"/>
<path opacity="0.7" d="M390.77 235.3H118.77V179.19H390.77V235.3Z" fill="white"/>
<path d="M321.94 235.3H187.65V179.19H321.94V235.3Z" fill="#127D85"/>
<path opacity="0.92" d="M321.94 235.3H187.65V179.19H321.94V235.3Z" fill="white"/>
<path d="M294.5 195.45H303.65" stroke="#263238" stroke-linecap="round" stroke-linejoin="round"/>
<path d="M242.12 195.45H288.99" stroke="#263238" stroke-linecap="round" stroke-linejoin="round"/>
<path d="M205.94 195.45H237.15" stroke="#263238" stroke-linecap="round" stroke-linejoin="round"/>
<path d="M265.28 200.26H303.65" stroke="#263238" stroke-linecap="round" stroke-linejoin="round"/>
<path d="M244.32 200.26H259.21" stroke="#263238" stroke-linecap="round" stroke-linejoin="round"/>
<path d="M205.94 200.26H237.71" stroke="#263238" stroke-linecap="round" stroke-linejoin="round"/>
<path d="M226.68 205.07H303.65" stroke="#263238" stroke-linecap="round" stroke-linejoin="round"/>
<path d="M205.94 205.07H219.51" stroke="#263238" stroke-linecap="round" stroke-linejoin="round"/>
<path d="M284.58 209.88H303.65" stroke="#263238" stroke-linecap="round" stroke-linejoin="round"/>
<path d="M248.18 209.88H277.96" stroke="#263238" stroke-linecap="round" stroke-linejoin="round"/>
<path d="M205.94 209.88H242.12" stroke="#263238" stroke-linecap="round" stroke-linejoin="round"/>
<path d="M237.71 214.68H303.65" stroke="#263238" stroke-linecap="round" stroke-linejoin="round"/>
<path d="M205.94 214.68H231.64" stroke="#263238" stroke-linecap="round" stroke-linejoin="round"/>
<path d="M390.77 355.24H118.77V299.13H390.77V355.24Z" fill="#127D85"/>
<path opacity="0.7" d="M390.77 355.24H118.77V299.13H390.77V355.24Z" fill="white"/>
<mask id="mask1_1_64572" style="mask-type:luminance" maskUnits="userSpaceOnUse" x="332" y="276" width="61" height="80">
<path d="M392.87 276.35H332.48V355.59H392.87V276.35Z" fill="white"/>
</mask>
<g mask="url(#mask1_1_64572)">
<path d="M358.58 320.48C358.58 320.48 342.65 326.88 340.15 327.67C337.65 328.46 337.5 329.54 337.5 332.97C337.5 336.4 337.97 351.87 337.97 353.12C337.97 354.37 337.81 356.71 337.81 356.71H390C390 356.71 386.56 342.71 384.53 336.1C382.5 329.49 383.44 328.91 379.85 326.73C376.26 324.55 366.85 321.42 364.85 320.95C362.776 320.624 360.679 320.467 358.58 320.48Z" fill="#263238" stroke="#263238" stroke-linecap="round" stroke-linejoin="round"/>
<path d="M359.36 318.76C359.36 318.76 355.61 318.45 354.05 321.58C352.49 324.71 348.74 332 348.74 332L353.27 334.81L348 337.5C348.88 341.358 349.975 345.164 351.28 348.9C352.188 351.352 353.229 353.752 354.4 356.09C354.4 356.09 362 347.5 365 344.84C366.978 342.947 368.615 340.728 369.84 338.28L365.94 334.69L372.66 333.91C372.66 333.91 370.94 325.17 368.75 321.58C366.56 317.99 359.36 318.76 359.36 318.76Z" fill="#263238" stroke="#263238" stroke-linecap="round" stroke-linejoin="round"/>
<path d="M351.69 349C351.97 349.78 352.27 350.52 352.56 351.17" stroke="white" stroke-width="0.5" stroke-linecap="round" stroke-linejoin="round"/>
<path d="M352.26 325.47L348.74 332L353.27 334.81L348.42 337.56C348.42 337.56 349.55 342.49 350.97 346.91" stroke="white" stroke-width="0.5" stroke-linecap="round" stroke-linejoin="round"/>
<path d="M370 322.51L372.63 333.91L365.91 334.69L369.81 338.28C369.81 338.28 362.31 347.07 359.2 350.62" stroke="white" stroke-width="0.5" stroke-linecap="round" stroke-linejoin="round"/>
<path d="M379.82 340L377.01 357.34" stroke="white" stroke-width="0.5" stroke-linecap="round" stroke-linejoin="round"/>
<path d="M341.25 336.88C341.25 336.88 340.94 347.34 341.09 350.62C341.214 352.699 341.635 354.75 342.34 356.71" stroke="white" stroke-width="0.5" stroke-linecap="round" stroke-linejoin="round"/>
<path d="M370.14 344.22L372.79 340.63L374.98 344.22H370.14Z" fill="white" stroke="#263238" stroke-miterlimit="10"/>
<path d="M373.26 309.86C373.26 309.86 375.91 309.55 376.54 313.46C377.17 317.37 375.29 322.36 369.04 322.36C362.79 322.36 363.27 317.67 363.42 314.24C363.57 310.81 373.26 309.86 373.26 309.86Z" fill="#263238" stroke="#263238" stroke-miterlimit="10"/>
<path d="M357.8 316.27C357.8 316.27 357.64 320.79 357.33 325.95C357.02 331.11 354.52 338.13 354.52 344.06C354.499 347.346 354.656 350.631 354.99 353.9C354.99 353.9 360.14 343.9 362.48 338.13C364.82 332.36 367.48 315.64 367.48 315.64L357.8 316.27Z" fill="white" stroke="#263238" stroke-miterlimit="10"/>
<path d="M373.1 306C374.263 303.723 374.905 301.216 374.98 298.66C374.98 294.76 374.2 289.45 369.67 287.1C365.14 284.75 356.39 286.32 354.21 290.85C352.738 293.746 352.049 296.976 352.21 300.22C352.368 301.974 352.733 303.703 353.3 305.37C353.3 305.37 353.93 302.37 358.14 300.85C362.35 299.33 366.89 297.72 369.07 298.85C371.25 299.98 373.1 306 373.1 306Z" fill="#263238" stroke="#263238" stroke-linecap="round" stroke-linejoin="round"/>
<path d="M353.43 304.4C353.43 304.4 351.55 301.59 350.77 303.62C349.99 305.65 351.09 308.62 352.33 309.24C353.57 309.86 354.21 309.55 354.21 309.55L353.43 304.4Z" fill="white" stroke="#263238" stroke-linecap="round" stroke-linejoin="round"/>
<path d="M373.1 304.87C373.1 304.87 375.29 302.68 375.29 304.71C375.18 306.594 374.48 308.395 373.29 309.86C372.35 311.11 371.88 310.49 371.88 310.49L373.1 304.87Z" fill="white" stroke="#263238" stroke-linecap="round" stroke-linejoin="round"/>
<path d="M369.39 295.88L370.94 291.51C371.001 291.339 370.992 291.151 370.914 290.987C370.836 290.822 370.696 290.696 370.525 290.635C370.354 290.574 370.166 290.583 370.002 290.661C369.837 290.739 369.711 290.879 369.65 291.05L368.35 294.7C366.982 294.377 365.563 294.336 364.179 294.58C362.794 294.824 361.475 295.348 360.3 296.12C356.24 298.78 352.96 301.12 352.96 301.12C352.96 301.12 353.12 310.02 354.83 313.3C356.54 316.58 359.52 320.48 362.02 320.48C364.52 320.48 368.89 315.02 370.61 313.3C372.33 311.58 373.42 304.87 373.42 302.68C373.42 301.11 370.84 297.69 369.39 295.88Z" fill="white" stroke="#263238" stroke-miterlimit="10"/>
<path d="M363.24 336C360.703 336.23 358.147 335.888 355.76 335C355.045 337.995 354.629 341.053 354.52 344.13C354.499 347.416 354.656 350.701 354.99 353.97C354.99 353.97 360.14 343.97 362.48 338.2C362.73 337.52 363 336.77 363.24 336Z" fill="#127D85" stroke="#263238" stroke-miterlimit="10"/>
</g>
<mask id="mask2_1_64572" style="mask-type:luminance" maskUnits="userSpaceOnUse" x="261" y="276" width="62" height="80">
<path d="M322.09 276.35H261.7V355.59H322.09V276.35Z" fill="white"/>
</mask>
<g mask="url(#mask2_1_64572)">
<path d="M289.43 312.19C285.447 312.642 281.491 313.31 277.58 314.19C273.01 315.37 270.81 315.88 270.81 318.08C270.81 320.28 270.3 329.76 268.81 334C267.32 338.24 265.59 344.33 265.59 346.53C265.59 348.73 268.81 358.04 268.81 358.04H274.73C274.73 358.04 272.53 347.2 272.53 346.19C272.53 345.18 275.58 336.19 275.58 336.19L275.75 358.37H306.75L306.42 337.2C306.42 337.2 309.12 345.84 309.12 347.36C309.12 348.88 308.12 358.88 308.12 358.88H314C314 358.88 316.88 347.88 316.71 343.98C316.54 340.08 313.71 327.72 313.33 323.98C312.95 320.24 315.19 318.22 311.13 315.68C307.07 313.14 297.75 311.62 295.72 311.45C293.604 311.492 291.497 311.74 289.43 312.19Z" fill="#127D85" stroke="#263238" stroke-miterlimit="10"/>
<path d="M275.55 336.24L276.06 327.77L274.19 321.34" stroke="#263238" stroke-linecap="round" stroke-linejoin="round"/>
<path d="M306.37 326.42V337.25" stroke="#263238" stroke-linecap="round" stroke-linejoin="round"/>
<path d="M306.53 329.47L309.24 325.4" stroke="#263238" stroke-linecap="round" stroke-linejoin="round"/>
<path d="M292.31 323.71L291.3 358.08" stroke="#263238" stroke-linecap="round" stroke-linejoin="round"/>
<path d="M291.8 308.13C290.293 308.213 288.86 308.809 287.74 309.82C285.88 311.52 285.2 318.12 285.2 318.12C285.2 318.12 291.13 316.43 292.14 316.12C293.15 315.81 302.14 317.81 302.14 317.81C302.14 317.81 301.3 311.89 298.93 309.35C296.56 306.81 291.8 308.13 291.8 308.13Z" fill="#263238" stroke="#263238" stroke-linecap="round" stroke-linejoin="round"/>
<path d="M289.43 302.71C289.43 302.71 290.79 304.71 290.79 310.71C290.79 316.71 291.46 322.9 292.31 323.71C293.16 324.52 296.71 315.71 296.71 311.71C296.778 309.065 297.415 306.466 298.58 304.09C298.58 304.09 294.34 301.21 292.14 300.87C291.539 300.776 290.925 300.914 290.422 301.256C289.919 301.597 289.565 302.117 289.43 302.71Z" fill="white" stroke="#263238" stroke-linecap="round" stroke-linejoin="round"/>
<path d="M291.06 317.31C291.33 320.6 291.79 323.19 292.31 323.71C292.83 324.23 294.46 320.93 295.58 317.39C294.078 317.602 292.553 317.575 291.06 317.31Z" fill="#263238" stroke="#263238" stroke-linecap="round" stroke-linejoin="round"/>
<path d="M299.76 286.46C299.76 286.46 300.76 286.8 302.64 285.1C304.52 283.4 303.64 280.19 302.81 280.87C302.28 281.302 301.821 281.815 301.45 282.39C301.122 281.399 300.517 280.522 299.707 279.863C298.898 279.204 297.917 278.79 296.88 278.67C293.33 278.33 289.09 283.24 289.09 283.24C289.09 283.24 281.31 289 282.15 293.57C282.99 298.14 287.4 302.2 289.43 302.71C291.46 303.22 295.19 299.5 294.51 296.28C293.83 293.06 293.33 288.28 294.51 287.81C296.233 287.262 297.986 286.811 299.76 286.46Z" fill="#263238" stroke="#263238" stroke-linecap="round" stroke-linejoin="round"/>
<path d="M289.09 300C289.09 300 286.22 298 285.54 299.5C284.86 301 286.39 303.73 288.25 304.57C290.11 305.41 291.8 302.71 291.8 302.71C291.8 302.71 297.73 307.45 301.8 307.62C305.87 307.79 306.04 304.57 305.36 298.48C304.68 292.39 302.65 287.64 301.13 285.95C299.61 284.26 293.68 285.78 291.81 287.3C289.94 288.82 288.81 290.18 290.63 290.52C292.45 290.86 294.18 291.52 292.49 293.4C290.8 295.28 289.95 294.58 290.49 295.94C291.03 297.3 293.2 298.65 291.17 299.33L289.09 300Z" fill="white" stroke="#263238" stroke-linecap="round" stroke-linejoin="round"/>
</g>
<mask id="mask3_1_64572" style="mask-type:luminance" maskUnits="userSpaceOnUse" x="182" y="275" width="61" height="81">
<path d="M242.85 275.97H182.46V355.6H242.85V275.97Z" fill="white"/>
</mask>
<g mask="url(#mask3_1_64572)">
<path d="M214.68 309C214.68 309 193.34 311.54 192.68 313.4C192.02 315.26 184.22 333.4 185.4 335.07C186.58 336.74 188.96 337.07 190.82 337.07C192.138 336.952 193.384 336.42 194.38 335.55L188.96 358.55H228.24L229.43 342.46C229.43 342.46 234 344.46 237.05 344.16C240.1 343.86 239.42 341.45 238.74 336.88C238.06 332.31 237.74 320.62 236.54 318.42C235.34 316.22 220.96 310.12 220.96 310.12L214.68 309Z" fill="#263238" stroke="#263238" stroke-linecap="round" stroke-linejoin="round"/>
<path d="M229.75 336.58V326.08L230.59 324.05" stroke="white" stroke-linecap="round" stroke-linejoin="round"/>
<path d="M195.54 327.77L197.24 320.66L196.9 319.14" stroke="white" stroke-linecap="round" stroke-linejoin="round"/>
<path d="M200 359.27C200 359.27 203.21 345.38 204.74 336.75C206.27 328.12 212.64 309 212.64 309L222.47 311.71C222.47 311.71 215.86 331.01 214.17 339.31C212.48 347.61 211.06 359.37 211.06 359.37L200 359.27Z" fill="#127D85" stroke="#263238" stroke-miterlimit="10"/>
<path d="M214 307C214 307 211.12 307 210.1 309C209.08 311 207.73 318.82 207.73 318.82C207.73 318.82 213.83 316.11 214.34 316.11C214.85 316.11 217.22 316.28 218.4 317.63C219.58 318.98 222.13 322.2 222.13 322.2C222.13 322.2 226.02 315.94 225.01 311.88C224.664 310.542 223.904 309.347 222.84 308.465C221.775 307.584 220.459 307.061 219.08 306.97L214 307Z" fill="#127D85" stroke="#263238" stroke-miterlimit="10"/>
<path d="M213 302.54C213 302.54 212.66 314.4 213 317.78C213.34 321.16 213.85 322.01 213.85 322.01C213.85 322.01 216.73 317.27 217.57 315.58C218.41 313.89 220.96 312.02 222.15 310.5C223.34 308.98 224.15 303.22 224.15 303.22C224.15 303.22 219.75 306.61 217.38 305.76C215.703 305.018 214.208 303.919 213 302.54Z" fill="white" stroke="#263238" stroke-linecap="round" stroke-linejoin="round"/>
<path d="M220 281.11C217.12 281.53 214.31 282.97 213.5 285.78C212.82 288.15 212.5 295.94 212.32 299.83C212.14 303.72 214.18 308.64 215.87 309.15C217.281 309.651 218.799 309.768 220.27 309.49C221.12 309.15 225.02 303.9 226.03 302.88C227.04 301.86 230.09 292.38 230.09 289C230.164 287.333 229.693 285.687 228.748 284.311C227.802 282.936 226.433 281.907 224.85 281.38C223.27 280.951 221.618 280.859 220 281.11Z" fill="white" stroke="#263238" stroke-linecap="round" stroke-linejoin="round"/>
<path d="M228.39 297C228.39 297 231.1 294.62 230.39 297.67C230.172 298.581 229.756 299.434 229.172 300.166C228.588 300.899 227.85 301.494 227.01 301.91L228.39 297Z" fill="white" stroke="#263238" stroke-linecap="round" stroke-linejoin="round"/>
<path d="M212.64 293.74C212.64 293.74 210.64 291.88 210.64 294.42C210.717 296.083 211.312 297.681 212.34 298.99L212.64 293.74Z" fill="white" stroke="#263238" stroke-linecap="round" stroke-linejoin="round"/>
<path d="M228.39 297C229.269 294.41 229.836 291.724 230.08 289C230.155 287.333 229.683 285.687 228.738 284.311C227.792 282.936 226.424 281.907 224.84 281.38C223.26 280.951 221.608 280.859 219.99 281.11C217.11 281.53 214.3 282.97 213.49 285.78C212.969 288.582 212.665 291.421 212.58 294.27C213.44 293.6 215.23 291.96 214.85 290.01C214.34 287.47 213.32 286.29 215.18 285.1C217.04 283.91 219.25 285.61 222.3 286.63C225.35 287.65 228.39 286.29 229.24 287.13C230.09 287.97 226.53 291.54 227.04 292.89C227.55 294.24 228.73 295.77 228.39 296.96V297Z" fill="#263238" stroke="#263238" stroke-linecap="round" stroke-linejoin="round"/>
<path d="M204 329.47C204 329.47 201.46 325.91 199.77 325.74C198.08 325.57 194.01 329.47 194.01 329.47H204Z" fill="white" stroke="#263238" stroke-linecap="round" stroke-linejoin="round"/>
<path d="M220.09 329.8H222.47L222.97 334.55L220.43 333.87L220.09 329.8Z" fill="white" stroke="#263238" stroke-linecap="round" stroke-linejoin="round"/>
<path d="M222.47 329.8L226.7 331.67L227.71 336.92L222.97 334.55L222.47 329.8Z" fill="white" stroke="#263238" stroke-linecap="round" stroke-linejoin="round"/>
<path d="M236 339L211.79 329.52C210.395 330.206 209.085 331.055 207.89 332.05C207.184 332.76 206.662 333.632 206.37 334.59C206.37 334.59 217.88 342.89 223.47 345.43C229.06 347.97 237.19 348.82 238.54 347.43C239.89 346.04 239.54 340.83 238.71 339.98C238.261 339.517 237.75 339.12 237.19 338.8" fill="#263238"/>
<path d="M236 339L211.79 329.52C210.395 330.206 209.085 331.055 207.89 332.05C207.184 332.76 206.662 333.632 206.37 334.59C206.37 334.59 217.88 342.89 223.47 345.43C229.06 347.97 237.19 348.82 238.54 347.43C239.89 346.04 239.54 340.83 238.71 339.98C238.261 339.517 237.75 339.12 237.19 338.8" stroke="#263238" stroke-linecap="round" stroke-linejoin="round"/>
<path d="M220.09 329L220.43 333.91C220.43 333.91 202.65 337.97 196.05 339.16C189.45 340.35 185.89 339.49 184.88 336.45C183.87 333.41 187.25 329.67 188.77 328.83C190.29 327.99 220.09 329 220.09 329Z" fill="#263238" stroke="#263238" stroke-linecap="round" stroke-linejoin="round"/>
</g>
<mask id="mask4_1_64572" style="mask-type:luminance" maskUnits="userSpaceOnUse" x="121" y="276" width="55" height="80">
<path d="M175.15 276.35H121.68V355.59H175.15V276.35Z" fill="white"/>
</mask>
<g mask="url(#mask4_1_64572)">
<path d="M154.69 317.39C154.69 317.39 161.47 319.08 164.18 319.93C166.89 320.78 167.73 321.79 167.73 323.82C167.73 325.85 166.21 334.82 166.21 336.18V345.33C166.21 347.87 168.75 357.18 168.75 357.18H135.75C135.75 357.18 132.03 342.96 129.49 335.18C126.95 327.4 126.61 324.68 129.15 323.49C135.188 321.277 141.348 319.414 147.6 317.91C149.948 317.571 152.317 317.398 154.69 317.39Z" fill="#127D85" stroke="#263238" stroke-miterlimit="10"/>
<path d="M164.52 328.56C164.52 328.56 166.52 337.88 165.87 341.26C165.22 344.64 160.62 357.52 160.62 357.52" stroke="#263238" stroke-linecap="round" stroke-linejoin="round"/>
<path d="M129.13 323.48C129.13 323.48 126.13 323.99 126.93 327.89C127.73 331.79 123.88 357 123.88 357H131.33C131.33 357 136.41 343.62 137.25 340.41C138.09 337.2 138.78 334.65 137.25 331.94" fill="#127D85"/>
<path d="M129.13 323.48C129.13 323.48 126.13 323.99 126.93 327.89C127.73 331.79 123.88 357 123.88 357H131.33C131.33 357 136.41 343.62 137.25 340.41C138.09 337.2 138.78 334.65 137.25 331.94" stroke="#263238" stroke-miterlimit="10"/>
<path d="M160.68 300.9L161.79 335.39H151.78V303.87L160.68 300.9Z" fill="#263238" stroke="#263238" stroke-linecap="round" stroke-linejoin="round"/>
<path d="M147.75 325.69C147.75 325.69 150.63 338.69 151.82 342.62C153.01 346.55 153.17 355.62 152.82 356.84C152.47 358.06 157.05 356.84 157.05 356.84C157.05 356.84 158.24 347.84 158.92 342.62C159.6 337.4 157.56 327.55 157.56 327.55L155.36 318.91L147.06 320.44L147.75 325.69Z" fill="white" stroke="#263238" stroke-linecap="round" stroke-linejoin="round"/>
<path d="M155 311.46C154.528 314.155 154.585 316.917 155.17 319.59C156.17 323.32 158.9 330.09 156.53 331.95C154.16 333.81 150.94 332.8 149.25 329.41C147.56 326.02 146.03 317.56 146.03 310.62C146.03 303.68 146.71 302.49 149.08 302.49C151.45 302.49 155 311.46 155 311.46Z" fill="white" stroke="#263238" stroke-linecap="round" stroke-linejoin="round"/>
<path d="M150.12 308.25C148.597 309.574 146.806 310.553 144.87 311.12C142.33 311.63 140.98 304.86 140.64 298.12C140.3 291.38 142 287.62 145.55 285.93C149.1 284.24 157.74 285.08 161.13 286.43C164.52 287.78 168.58 289.99 168.58 293.54C168.58 297.09 164 300 162.65 300.8C161.3 301.6 158.08 302.8 156.05 304.86C154.296 306.341 152.286 307.49 150.12 308.25Z" fill="#263238" stroke="#263238" stroke-linecap="round" stroke-linejoin="round"/>
<path d="M150.12 308.25C150.12 308.25 152.12 313.33 155.88 313.49C159.64 313.65 163.88 305.03 164.01 301.3C164.14 297.57 160.28 291.14 160.28 291.14C160.28 291.14 153.68 306.21 150.12 308.25Z" fill="white" stroke="#263238" stroke-linecap="round" stroke-linejoin="round"/>
<path d="M149.11 300.63L149.44 337.2H138.1L140.64 294.7" fill="#263238"/>
<path d="M149.11 300.63L149.44 337.2H138.1L140.64 294.7" stroke="#263238" stroke-linecap="round" stroke-linejoin="round"/>
</g>
</svg>
