<svg width="1280" height="832" viewBox="0 0 1280 832" fill="#0F0F0F" xmlns="http://www.w3.org/2000/svg">
<g clip-path="url(#clip0_1_64527)">
<rect width="1280" height="832" fill="#0F0F0F"/>
<rect x="-6" width="1318" height="832" fill="#2C2C2C"/>
<path opacity="0.5" d="M201.591 117.273C166.051 190.643 -126.168 162.959 -126.168 162.959L-97.2635 -193.872L1296.67 -80.9594L1282.22 97.4563C1099.71 13.9402 954.917 -35.9049 785.274 -10.0171C640.024 12.1481 477.311 156.663 409.809 73.4411C342.308 -9.78056 237.131 43.9028 201.591 117.273Z" fill="#388087"/>
<path opacity="0.5" d="M1039.04 773.092C1076.61 700.741 1367.94 736.563 1367.94 736.563L1329.1 1092.45L-61.1431 940.71L-41.7213 762.767C138.39 851.34 281.734 905.203 452.034 884.056C597.845 865.95 764.525 726.029 829.679 811.1C894.833 896.172 1001.47 845.442 1039.04 773.092Z" fill="#388087"/>
<path opacity="0.5" d="M74.9791 -136.696L570.205 52.12C570.205 52.12 292.198 -53.8767 259 124.5C225.803 302.877 -52.2047 196.88 -52.2047 196.88L74.9791 -136.696Z" fill="#6FB3B8"/>
<path opacity="0.5" d="M74.9791 -136.696L570.205 52.12C570.205 52.12 292.198 -53.8767 259 124.5C225.803 302.877 -52.2047 196.88 -52.2047 196.88L74.9791 -136.696Z" fill="#6FB3B8"/>
<path opacity="0.5" d="M1195.39 992.889L711.281 777.151C711.281 777.151 983.045 898.261 1025.99 721.977C1068.94 545.693 1340.7 666.804 1340.7 666.804L1195.39 992.889Z" fill="#C2EDCE"/>
<path opacity="0.5" d="M830.406 123.114C764.687 184.057 640.005 89.4335 640.005 89.4335C640.005 89.4335 724.451 136.607 767.994 131.317C811.537 126.026 855.906 88.3047 895.2 78.662C972.623 59.6627 1024.75 55.8803 1073.08 119.284C1108.05 165.171 1081.73 242.119 1122.12 283.322C1181.83 344.236 1254.56 251.817 1339.38 260.877C1544.21 282.757 1678.91 385.417 1764.91 572.609C1791.98 631.527 1863.98 695.925 1810.31 732.309C1753.83 770.6 1765.33 814.02 1707.32 591.159C1649.31 368.297 1414.8 316.132 1315.38 323.251C1215.95 330.37 1146.69 400.165 1088.78 341.521C1052.25 304.529 1065.78 235.853 1050.89 192.718C1036.01 149.583 896.124 62.1708 830.406 123.114Z" fill="#97BBBC"/>
<path d="M1188.42 166.296C1187.88 166.558 1187.88 167.253 1188.41 167.525C1190.79 168.786 1192.34 171.141 1192.43 173.891L1192.56 177.361C1192.72 181.959 1196.59 185.556 1201.18 185.392C1201.49 185.381 1201.78 185.336 1202.07 185.295C1199.99 182.599 1198.16 178.664 1197.96 172.999C1197.95 172.618 1198.25 172.294 1198.63 172.281C1199.01 172.267 1199.34 172.568 1199.35 172.95C1199.74 183.854 1206.59 188.24 1209.14 189.174C1209.85 189.435 1210.65 189.068 1210.91 188.35C1211.18 187.628 1210.81 186.834 1210.1 186.564C1209.94 186.504 1207.99 185.731 1206.06 183.585C1207.91 182.112 1209.63 179.375 1209.13 175.88C1208.4 169.087 1202.12 164.512 1194.64 164.779C1192.46 164.857 1190.22 165.406 1188.42 166.296Z" fill="#466F72"/>
<path d="M903.003 129.583C903.595 129.533 903.846 128.885 903.458 128.441C901.696 126.397 901.117 123.642 902.027 121.045L903.176 117.768C904.698 113.427 902.411 108.669 898.069 107.147C897.783 107.047 897.497 106.983 897.208 106.914C898.164 110.184 898.43 114.513 896.555 119.862C896.428 120.223 896.03 120.414 895.67 120.288C895.309 120.161 895.118 119.763 895.244 119.403C898.854 109.106 894.074 102.527 892.041 100.728C891.468 100.224 890.594 100.276 890.086 100.848C889.572 101.422 889.628 102.297 890.194 102.808C890.32 102.921 891.856 104.352 892.872 107.054C890.609 107.751 888.008 109.672 887.199 113.109C885.411 119.703 889.591 126.251 896.652 128.727C898.709 129.448 900.993 129.752 903.003 129.583Z" fill="black"/>
<path d="M1210.7 536.422C1210.46 535.879 1209.77 535.858 1209.48 536.37C1208.13 538.709 1205.72 540.168 1202.97 540.168H1199.5C1194.9 540.168 1191.16 543.9 1191.16 548.501C1191.16 548.805 1191.2 549.096 1191.23 549.391C1194 547.407 1198 545.723 1203.66 545.723C1204.05 545.723 1204.36 546.036 1204.36 546.418C1204.36 546.8 1204.05 547.112 1203.66 547.112C1192.75 547.112 1188.13 553.801 1187.1 556.314C1186.82 557.021 1187.15 557.828 1187.86 558.119C1188.57 558.414 1189.38 558.071 1189.68 557.368C1189.74 557.212 1190.58 555.289 1192.8 553.436C1194.2 555.341 1196.88 557.16 1200.39 556.787C1207.2 556.292 1212 550.181 1212 542.698C1212 540.519 1211.53 538.262 1210.7 536.422Z" fill="#3B5F51"/>
<path d="M1239.1 804.458C1238.84 804.994 1239.27 805.538 1239.85 805.43C1242.51 804.947 1245.18 805.845 1246.95 807.946L1249.2 810.597C1252.17 814.111 1257.43 814.551 1260.94 811.581C1261.17 811.385 1261.37 811.17 1261.58 810.957C1258.28 810.123 1254.41 808.157 1250.75 803.829C1250.5 803.537 1250.54 803.097 1250.83 802.85C1251.12 802.603 1251.56 802.64 1251.81 802.932C1258.85 811.264 1266.95 810.479 1269.53 809.639C1270.25 809.401 1270.65 808.621 1270.42 807.893C1270.18 807.159 1269.4 806.764 1268.67 806.993C1268.51 807.044 1266.5 807.642 1263.66 807.148C1264.2 804.844 1263.86 801.629 1261.31 799.188C1256.54 794.304 1248.77 794.587 1243.06 799.418C1241.39 800.825 1239.97 802.64 1239.1 804.458Z" fill="black"/>
<path d="M111.281 650.815C111.685 651.252 112.35 651.051 112.462 650.473C112.993 647.827 114.812 645.678 117.42 644.801L120.712 643.695C125.073 642.23 127.422 637.503 125.957 633.142C125.86 632.854 125.735 632.59 125.612 632.319C123.619 635.082 120.366 637.951 114.993 639.756C114.631 639.878 114.235 639.681 114.113 639.319C113.992 638.957 114.188 638.561 114.55 638.44C124.894 634.965 127.149 627.151 127.32 624.443C127.366 623.681 126.788 623.023 126.025 622.973C125.256 622.92 124.6 623.502 124.544 624.263C124.532 624.431 124.347 626.522 122.839 628.984C120.899 627.626 117.785 626.753 114.576 628.225C108.274 630.864 105.674 638.185 108.057 645.278C108.751 647.343 109.914 649.333 111.281 650.815Z" fill="#617E80"/>
<path d="M602.221 333.698C602.509 334.219 603.203 334.182 603.45 333.648C604.596 331.205 606.875 329.551 609.617 329.322L613.078 329.033C617.662 328.651 621.072 324.62 620.689 320.036C620.664 319.733 620.605 319.446 620.55 319.154C617.956 321.361 614.112 323.372 608.463 323.844C608.083 323.875 607.745 323.59 607.714 323.209C607.682 322.829 607.967 322.491 608.348 322.459C619.221 321.552 623.276 314.502 624.088 311.912C624.314 311.183 623.91 310.407 623.18 310.176C622.447 309.941 621.671 310.35 621.435 311.075C621.383 311.236 620.704 313.223 618.652 315.254C617.092 313.472 614.277 311.882 610.809 312.546C604.059 313.606 599.788 320.095 600.411 327.551C600.592 329.723 601.247 331.933 602.221 333.698Z" fill="#26595E"/>
<path opacity="0.7" d="M389.704 143.422C389.461 142.879 388.767 142.858 388.476 143.37C387.13 145.709 384.722 147.168 381.97 147.168H378.498C373.897 147.168 370.164 150.9 370.164 155.501C370.164 155.805 370.199 156.096 370.229 156.391C372.998 154.407 376.996 152.723 382.664 152.723C383.046 152.723 383.359 153.036 383.359 153.418C383.359 153.8 383.046 154.112 382.664 154.112C371.753 154.112 367.126 160.801 366.102 163.314C365.815 164.021 366.154 164.828 366.861 165.119C367.573 165.414 368.38 165.071 368.676 164.368C368.741 164.212 369.583 162.289 371.796 160.436C373.202 162.341 375.876 164.16 379.387 163.787C386.202 163.292 390.998 157.181 390.998 149.698C390.998 147.519 390.529 145.262 389.704 143.422Z" fill="black"/>
<path d="M109.63 350.416C109.057 350.574 108.931 351.257 109.393 351.622C111.501 353.307 112.577 355.909 112.16 358.629L111.634 362.061C110.937 366.608 114.06 370.864 118.608 371.561C118.908 371.607 119.201 371.617 119.497 371.632C117.956 368.594 116.898 364.388 117.757 358.785C117.815 358.407 118.171 358.146 118.549 358.203C118.926 358.261 119.188 358.618 119.13 358.995C117.476 369.781 123.385 375.368 125.714 376.761C126.37 377.152 127.219 376.939 127.614 376.284C128.014 375.625 127.797 374.775 127.147 374.377C127.002 374.289 125.229 373.165 123.733 370.696C125.829 369.595 128.032 367.228 128.196 363.701C128.74 356.89 123.426 351.223 116.03 350.089C113.876 349.759 111.574 349.88 109.63 350.416Z" fill="black"/>
<path d="M900.689 724.022C900.149 724.271 900.135 724.965 900.65 725.251C903.004 726.571 904.488 728.964 904.517 731.716L904.554 735.188C904.603 739.788 908.376 743.481 912.976 743.432C913.28 743.429 913.57 743.391 913.865 743.357C911.852 740.609 910.126 736.63 910.065 730.962C910.061 730.58 910.37 730.264 910.752 730.26C911.134 730.256 911.45 730.565 911.454 730.947C911.57 741.858 918.308 746.413 920.832 747.411C921.542 747.689 922.346 747.342 922.629 746.632C922.916 745.917 922.565 745.113 921.859 744.826C921.702 744.762 919.77 743.941 917.893 741.747C919.784 740.321 921.573 737.628 921.163 734.121C920.595 727.312 914.433 722.582 906.951 722.662C904.772 722.685 902.52 723.178 900.689 724.022Z" fill="#4A4A49"/>
<path d="M568.704 818.422C568.461 817.879 567.767 817.858 567.476 818.37C566.13 820.709 563.722 822.168 560.97 822.168H557.498C552.897 822.168 549.164 825.9 549.164 830.501C549.164 830.805 549.199 831.096 549.229 831.391C551.998 829.407 555.996 827.723 561.664 827.723C562.046 827.723 562.359 828.036 562.359 828.418C562.359 828.8 562.046 829.112 561.664 829.112C550.753 829.112 546.126 835.801 545.102 838.314C544.815 839.021 545.154 839.828 545.861 840.119C546.573 840.414 547.38 840.071 547.676 839.368C547.741 839.212 548.583 837.289 550.796 835.436C552.202 837.341 554.876 839.16 558.387 838.787C565.202 838.292 569.998 832.181 569.998 824.698C569.998 822.519 569.529 820.262 568.704 818.422Z" fill="black"/>
</g>
<defs>
<clipPath id="clip0_1_64527">
<rect width="1280" height="832" fill="0F0F0F"/>
</clipPath>
</defs>
</svg>
